<?xml version="1.0" encoding="UTF-8"?>
<svg xmlns="http://www.w3.org/2000/svg" xmlns:xlink="http://www.w3.org/1999/xlink" width="80px" height="80px" viewBox="0 0 80 80" version="1.1">
<g id="surface1">
<path style=" stroke:none;fill-rule:evenodd;fill:rgb(100%,100%,100%);fill-opacity:1;" d="M 40 0 C 62.09375 0 80 18.359375 80 41.011719 C 80 59.128906 68.550781 74.496094 52.667969 79.925781 C 50.640625 80.328125 49.921875 79.046875 49.921875 77.957031 C 49.921875 76.605469 49.96875 72.1875 49.96875 66.699219 C 49.96875 62.875 48.6875 60.378906 47.253906 59.109375 C 56.160156 58.09375 65.519531 54.625 65.519531 38.871094 C 65.519531 34.390625 63.96875 30.734375 61.398438 27.863281 C 61.816406 26.828125 63.1875 22.65625 61.007812 17.007812 C 61.007812 17.007812 57.65625 15.90625 50.019531 21.210938 C 46.757812 20.304688 43.386719 19.839844 40 19.832031 C 36.617188 19.839844 33.246094 20.304688 29.988281 21.210938 C 22.34375 15.90625 18.984375 17.007812 18.984375 17.007812 C 16.8125 22.65625 18.183594 26.828125 18.597656 27.863281 C 16.039062 30.734375 14.476562 34.390625 14.476562 38.871094 C 14.476562 54.585938 23.816406 58.105469 32.699219 59.140625 C 31.554688 60.164062 30.519531 61.972656 30.160156 64.625 C 27.878906 65.671875 22.089844 67.484375 18.519531 61.214844 C 18.519531 61.214844 16.402344 57.277344 12.386719 56.988281 C 12.386719 56.988281 8.488281 56.9375 12.117188 59.480469 C 12.117188 59.480469 14.734375 60.738281 16.554688 65.480469 C 16.554688 65.480469 18.902344 72.800781 30.03125 70.320312 C 30.050781 73.746094 30.089844 76.980469 30.089844 77.957031 C 30.089844 79.039062 29.351562 80.308594 27.355469 79.929688 C 11.460938 74.507812 0 59.132812 0 41.011719 C 0 18.359375 17.910156 0 40 0 "/>
</g>
</svg>
