<?xml version="1.0" encoding="UTF-8"?>
<svg xmlns="http://www.w3.org/2000/svg" xmlns:xlink="http://www.w3.org/1999/xlink" width="80px" height="80px" viewBox="0 0 80 80" version="1.1">
<g id="surface1">
<path style=" stroke:none;fill-rule:nonzero;fill:rgb(100%,100%,100%);fill-opacity:1;" d="M 80 40 C 80 17.90625 62.089844 0 40 0 C 17.910156 0 0 17.90625 0 40 C 0 62.089844 17.910156 80 40 80 C 62.089844 80 80 62.089844 80 40 Z M 80 40 "/>
<path style=" stroke:none;fill-rule:nonzero;fill:rgb(12.941177%,18.039216%,24.313726%);fill-opacity:1;" d="M 63.898438 43.21875 L 63.898438 59.710938 L 54.339844 59.710938 L 54.339844 44.324219 C 54.339844 40.460938 52.957031 37.820312 49.496094 37.820312 C 46.855469 37.820312 45.285156 39.597656 44.59375 41.316406 C 44.339844 41.933594 44.273438 42.785156 44.273438 43.648438 L 44.273438 59.707031 L 34.714844 59.707031 C 34.714844 59.707031 34.84375 33.648438 34.714844 30.953125 L 44.277344 30.953125 L 44.277344 35.027344 C 44.257812 35.058594 44.230469 35.089844 44.210938 35.121094 L 44.277344 35.121094 L 44.277344 35.027344 C 45.546875 33.070312 47.8125 30.277344 52.894531 30.277344 C 59.183594 30.277344 63.898438 34.386719 63.898438 43.21875 M 24.710938 17.089844 C 21.441406 17.089844 19.300781 19.238281 19.300781 22.058594 C 19.300781 24.820312 21.378906 27.027344 24.585938 27.027344 L 24.648438 27.027344 C 27.984375 27.027344 30.054688 24.820312 30.054688 22.058594 C 29.992188 19.238281 27.984375 17.089844 24.710938 17.089844 M 19.867188 59.710938 L 29.425781 59.710938 L 29.425781 30.953125 L 19.867188 30.953125 Z M 19.867188 59.710938 "/>
</g>
</svg>
