<svg xmlns="http://www.w3.org/2000/svg" xmlns:xlink="http://www.w3.org/1999/xlink" width="100" zoomAndPan="magnify" viewBox="0 0 75 74.999997" height="100" preserveAspectRatio="xMidYMid meet" version="1.0"><defs><g/><clipPath id="e3b84ce160"><rect x="0" width="59" y="0" height="52"/></clipPath><clipPath id="d82309c159"><path d="M 1 14 L 52.839844 14 L 52.839844 49 L 1 49 Z M 1 14 " clip-rule="nonzero"/></clipPath><clipPath id="739cca1be4"><rect x="0" width="53" y="0" height="55"/></clipPath></defs><rect x="-7.5" width="90" fill="#ffffff" y="-7.5" height="89.999996" fill-opacity="1"/><rect x="-7.5" width="90" fill="#f7f8ef" y="-7.5" height="89.999996" fill-opacity="1"/><g transform="matrix(1, 0, 0, 1, 8, -0.000000000000001893)"><g clip-path="url(#e3b84ce160)"><g fill="#ffb829" fill-opacity="1"><g transform="translate(6.064131, 35.774712)"><g><path d="M 20.109375 7.105469 C 18.097656 7.105469 16.304688 6.746094 14.734375 6.027344 C 13.21875 5.332031 11.925781 4.40625 10.855469 3.25 C 9.96875 2.285156 9.210938 1.246094 8.589844 0.128906 C 8.066406 -0.8125 7.613281 -1.738281 7.238281 -2.648438 C 6.992188 -3.246094 6.761719 -3.742188 6.554688 -4.140625 L 10.964844 -6.449219 L 6.605469 -4.042969 C 6.4375 -4.347656 6.285156 -4.597656 6.148438 -4.785156 C 6.105469 -4.84375 6.070312 -4.890625 6.039062 -4.925781 L 6.035156 -4.929688 C 6.046875 -4.917969 6.058594 -4.90625 6.074219 -4.894531 C 6.324219 -4.664062 6.570312 -4.503906 6.824219 -4.414062 C 6.855469 -4.402344 6.875 -4.394531 6.882812 -4.394531 C 6.84375 -4.402344 6.785156 -4.410156 6.714844 -4.417969 L 7.210938 -9.371094 L 12.183594 -9.632812 C 12.277344 -7.867188 12.417969 -6.335938 12.609375 -5.035156 C 12.816406 -3.644531 12.988281 -2.574219 13.128906 -1.828125 L 8.234375 -0.910156 L 13.074219 -2.078125 C 13.253906 -1.335938 13.308594 -0.613281 13.230469 0.09375 C 13.105469 1.28125 12.652344 2.3125 11.878906 3.1875 C 11.113281 4.050781 10.15625 4.621094 9.007812 4.898438 C 8.332031 5.0625 7.617188 5.105469 6.867188 5.03125 L 6.679688 5.011719 L 6.496094 4.980469 C 6.210938 4.929688 5.921875 4.894531 5.625 4.867188 C 5.324219 4.839844 4.90625 4.828125 4.363281 4.828125 C 3.875 4.828125 3.476562 4.839844 3.175781 4.867188 C 2.828125 4.898438 2.523438 4.929688 2.261719 4.96875 C 1.457031 5.082031 0.683594 5.050781 -0.0625 4.875 C -1.109375 4.625 -2.007812 4.121094 -2.761719 3.371094 C -3.5625 2.570312 -4.074219 1.613281 -4.296875 0.503906 C -4.460938 -0.324219 -4.445312 -1.167969 -4.246094 -2.03125 L 0.605469 -0.910156 L -4.269531 -1.917969 C -4.140625 -2.546875 -3.992188 -3.441406 -3.832031 -4.597656 C -3.667969 -5.777344 -3.519531 -7.128906 -3.386719 -8.660156 C -3.261719 -10.136719 -3.195312 -11.675781 -3.195312 -13.28125 C -3.195312 -14.910156 -3.261719 -16.46875 -3.386719 -17.960938 C -3.519531 -19.503906 -3.667969 -20.875 -3.832031 -22.0625 C -3.992188 -23.222656 -4.136719 -24.09375 -4.261719 -24.683594 C -4.429688 -25.46875 -4.457031 -26.230469 -4.335938 -26.972656 C -4.144531 -28.164062 -3.628906 -29.175781 -2.792969 -30.015625 C -2.023438 -30.785156 -1.097656 -31.285156 -0.0078125 -31.523438 C 0.640625 -31.664062 1.320312 -31.703125 2.035156 -31.632812 C 2.707031 -31.554688 3.234375 -31.523438 3.617188 -31.539062 C 4.140625 -31.558594 4.675781 -31.601562 5.226562 -31.660156 C 6.082031 -31.757812 7.046875 -31.808594 8.121094 -31.808594 C 12.402344 -31.769531 15.78125 -30.5625 18.265625 -28.183594 C 19.59375 -26.910156 20.582031 -25.367188 21.226562 -23.5625 C 21.804688 -21.953125 22.09375 -20.15625 22.09375 -18.175781 C 22.09375 -15.703125 21.636719 -13.546875 20.722656 -11.699219 C 19.71875 -9.667969 18.265625 -8.085938 16.359375 -6.953125 L 13.8125 -11.230469 L 13.8125 -16.210938 C 14.363281 -16.210938 14.898438 -16.125 15.421875 -15.953125 C 16.171875 -15.699219 16.828125 -15.296875 17.390625 -14.734375 L 22.296875 -9.828125 L 16.039062 -6.703125 L 13.8125 -11.15625 L 16.332031 -15.453125 C 17.671875 -14.664062 18.757812 -13.695312 19.585938 -12.542969 C 20.15625 -11.746094 20.664062 -10.898438 21.113281 -10.007812 L 21.167969 -9.890625 L 21.21875 -9.773438 C 21.371094 -9.429688 21.511719 -9.164062 21.636719 -8.972656 C 21.664062 -8.929688 21.679688 -8.90625 21.691406 -8.894531 C 21.660156 -8.929688 21.613281 -8.976562 21.554688 -9.023438 C 21.460938 -9.101562 21.320312 -9.15625 21.128906 -9.1875 C 21.574219 -9.113281 22.070312 -9.078125 22.617188 -9.078125 C 22.710938 -9.078125 22.789062 -9.085938 22.847656 -9.101562 C 23.128906 -9.171875 23.425781 -9.261719 23.738281 -9.378906 C 24.378906 -9.628906 25.042969 -9.769531 25.738281 -9.792969 C 27.019531 -9.839844 28.164062 -9.496094 29.175781 -8.753906 C 30.191406 -8.015625 30.867188 -7.027344 31.210938 -5.792969 C 31.398438 -5.121094 31.46875 -4.410156 31.417969 -3.652344 C 31.371094 -3.003906 31.34375 -2.234375 31.332031 -1.339844 C 31.324219 -0.546875 31.34375 0.121094 31.402344 0.664062 L 31.410156 0.742188 L 31.414062 0.820312 C 31.46875 1.566406 31.402344 2.277344 31.214844 2.953125 C 30.929688 3.992188 30.398438 4.875 29.617188 5.59375 C 28.84375 6.308594 27.929688 6.769531 26.875 6.976562 C 26.195312 7.109375 25.488281 7.121094 24.757812 7.015625 L 25.460938 2.085938 L 25.152344 7.058594 C 24.480469 7.015625 23.941406 7 23.523438 7.007812 C 23.015625 7.019531 22.539062 7.039062 22.09375 7.0625 C 21.515625 7.089844 20.855469 7.105469 20.109375 7.105469 Z M 20.109375 -2.855469 C 20.683594 -2.855469 21.175781 -2.867188 21.582031 -2.886719 C 22.121094 -2.914062 22.695312 -2.933594 23.300781 -2.949219 C 23.996094 -2.964844 24.820312 -2.941406 25.773438 -2.882812 L 25.96875 -2.871094 L 26.164062 -2.84375 C 25.789062 -2.898438 25.386719 -2.882812 24.96875 -2.800781 C 24.171875 -2.644531 23.46875 -2.289062 22.859375 -1.722656 C 22.246094 -1.15625 21.828125 -0.476562 21.613281 0.3125 C 21.496094 0.734375 21.453125 1.140625 21.480469 1.53125 L 26.449219 1.175781 L 21.492188 1.6875 C 21.398438 0.761719 21.359375 -0.289062 21.371094 -1.46875 C 21.386719 -2.546875 21.421875 -3.496094 21.476562 -4.316406 C 21.453125 -3.941406 21.5 -3.542969 21.617188 -3.121094 C 21.730469 -2.710938 21.902344 -2.324219 22.136719 -1.957031 C 22.445312 -1.46875 22.832031 -1.054688 23.300781 -0.710938 C 23.769531 -0.371094 24.28125 -0.125 24.839844 0.0195312 C 25.257812 0.128906 25.679688 0.175781 26.101562 0.160156 C 26.539062 0.144531 26.898438 0.0820312 27.183594 -0.03125 C 26.535156 0.207031 25.894531 0.40625 25.265625 0.5625 C 24.414062 0.777344 23.53125 0.882812 22.617188 0.882812 C 21.539062 0.882812 20.519531 0.804688 19.546875 0.648438 C 17.941406 0.390625 16.484375 -0.285156 15.175781 -1.371094 C 13.96875 -2.378906 12.941406 -3.851562 12.09375 -5.78125 L 16.65625 -7.777344 L 12.203125 -5.550781 C 11.992188 -5.972656 11.753906 -6.367188 11.492188 -6.734375 C 11.5 -6.722656 11.511719 -6.710938 11.515625 -6.703125 C 11.515625 -6.703125 11.511719 -6.707031 11.503906 -6.714844 C 11.457031 -6.757812 11.386719 -6.804688 11.292969 -6.859375 L 3.371094 -11.503906 L 11.660156 -15.648438 L 13.886719 -11.195312 L 10.367188 -7.671875 L 10.347656 -7.691406 C 10.894531 -7.144531 11.535156 -6.746094 12.269531 -6.503906 C 12.773438 -6.335938 13.285156 -6.25 13.8125 -6.25 L -4.292969 -6.25 L 11.265625 -15.511719 C 11.484375 -15.640625 11.660156 -15.84375 11.796875 -16.113281 C 12.019531 -16.570312 12.132812 -17.257812 12.132812 -18.175781 C 12.132812 -19.566406 11.878906 -20.507812 11.371094 -20.992188 C 11.144531 -21.210938 10.824219 -21.386719 10.417969 -21.523438 C 9.796875 -21.730469 9.035156 -21.839844 8.121094 -21.847656 C 7.421875 -21.847656 6.832031 -21.820312 6.347656 -21.765625 C 5.554688 -21.675781 4.777344 -21.613281 4.007812 -21.585938 C 3.105469 -21.550781 2.125 -21.59375 1.074219 -21.71875 C 1.398438 -21.6875 1.746094 -21.710938 2.117188 -21.792969 C 2.929688 -21.972656 3.644531 -22.363281 4.253906 -22.972656 C 4.933594 -23.65625 5.347656 -24.460938 5.5 -25.394531 C 5.578125 -25.882812 5.570312 -26.339844 5.476562 -26.769531 C 5.652344 -25.941406 5.839844 -24.828125 6.035156 -23.433594 C 6.222656 -22.066406 6.390625 -20.527344 6.535156 -18.808594 C 6.6875 -17.035156 6.765625 -15.191406 6.765625 -13.28125 C 6.765625 -11.394531 6.6875 -9.570312 6.535156 -7.808594 C 6.390625 -6.101562 6.222656 -4.570312 6.03125 -3.21875 C 5.839844 -1.847656 5.65625 -0.742188 5.484375 0.0976562 L 5.472656 0.152344 L 5.460938 0.210938 C 5.582031 -0.324219 5.585938 -0.875 5.472656 -1.449219 C 5.300781 -2.308594 4.902344 -3.050781 4.28125 -3.671875 C 3.703125 -4.25 3.027344 -4.628906 2.246094 -4.816406 C 1.761719 -4.929688 1.300781 -4.957031 0.851562 -4.890625 C 1.296875 -4.957031 1.789062 -5.011719 2.324219 -5.058594 C 2.910156 -5.105469 3.589844 -5.132812 4.363281 -5.132812 C 5.1875 -5.132812 5.894531 -5.105469 6.476562 -5.058594 C 7.066406 -5.007812 7.652344 -4.929688 8.226562 -4.828125 L 7.363281 0.0742188 L 7.855469 -4.878906 C 7.484375 -4.917969 7.09375 -4.886719 6.675781 -4.785156 C 5.789062 -4.570312 5.039062 -4.113281 4.417969 -3.414062 C 3.789062 -2.703125 3.425781 -1.886719 3.328125 -0.96875 C 3.28125 -0.527344 3.300781 -0.117188 3.394531 0.257812 L 3.363281 0.132812 L 3.339844 0.0078125 C 3.175781 -0.867188 2.980469 -2.058594 2.757812 -3.578125 C 2.519531 -5.1875 2.34375 -7.03125 2.234375 -9.109375 L 1.929688 -14.90625 L 7.707031 -14.328125 C 9.820312 -14.117188 11.527344 -13.414062 12.824219 -12.21875 C 13.699219 -11.414062 14.535156 -10.292969 15.324219 -8.859375 L 15.351562 -8.8125 L 15.378906 -8.761719 C 15.726562 -8.097656 16.078125 -7.328125 16.441406 -6.457031 C 16.671875 -5.902344 16.953125 -5.324219 17.289062 -4.71875 C 17.527344 -4.296875 17.820312 -3.894531 18.171875 -3.515625 C 18.339844 -3.332031 18.578125 -3.167969 18.882812 -3.027344 C 19.136719 -2.914062 19.546875 -2.855469 20.109375 -2.855469 Z M 21.0625 -1.117188 C 20.320312 -1.042969 19.613281 -1.082031 18.9375 -1.242188 C 17.851562 -1.5 16.929688 -2.019531 16.167969 -2.808594 C 15.394531 -3.617188 14.902344 -4.582031 14.703125 -5.707031 C 14.578125 -6.414062 14.578125 -7.144531 14.710938 -7.902344 C 14.796875 -8.472656 14.90625 -9.257812 15.042969 -10.261719 C 15.171875 -11.234375 15.292969 -12.289062 15.398438 -13.429688 C 15.5 -14.472656 15.546875 -15.460938 15.546875 -16.390625 C 15.546875 -17.324219 15.5 -18.3125 15.398438 -19.355469 C 15.292969 -20.496094 15.171875 -21.5625 15.039062 -22.550781 C 14.90625 -23.554688 14.792969 -24.351562 14.699219 -24.941406 C 14.570312 -25.652344 14.574219 -26.371094 14.707031 -27.089844 C 14.921875 -28.234375 15.429688 -29.207031 16.238281 -30.015625 C 17 -30.777344 17.917969 -31.277344 18.992188 -31.519531 C 19.648438 -31.664062 20.339844 -31.703125 21.0625 -31.632812 L 20.566406 -26.675781 L 20.921875 -31.644531 C 21.328125 -31.613281 21.742188 -31.578125 22.160156 -31.535156 C 22.355469 -31.515625 22.609375 -31.503906 22.917969 -31.503906 C 23.328125 -31.503906 23.632812 -31.515625 23.828125 -31.535156 C 24.238281 -31.578125 24.628906 -31.613281 25.003906 -31.640625 L 25.386719 -26.675781 L 24.679688 -31.605469 C 25.453125 -31.714844 26.195312 -31.691406 26.914062 -31.535156 C 27.992188 -31.296875 28.914062 -30.796875 29.683594 -30.027344 C 30.453125 -29.257812 30.957031 -28.332031 31.195312 -27.253906 C 31.351562 -26.539062 31.375 -25.792969 31.265625 -25.023438 C 31.160156 -24.378906 31.042969 -23.554688 30.910156 -22.550781 C 30.78125 -21.578125 30.671875 -20.535156 30.574219 -19.421875 C 30.484375 -18.375 30.441406 -17.363281 30.441406 -16.390625 C 30.441406 -15.445312 30.484375 -14.4375 30.574219 -13.375 C 30.671875 -12.257812 30.78125 -11.21875 30.910156 -10.261719 C 31.042969 -9.257812 31.160156 -8.441406 31.257812 -7.816406 C 31.378906 -7.03125 31.355469 -6.265625 31.1875 -5.527344 C 30.964844 -4.527344 30.503906 -3.65625 29.8125 -2.910156 C 29.109375 -2.152344 28.25 -1.625 27.246094 -1.328125 C 26.542969 -1.125 25.804688 -1.046875 25.03125 -1.101562 L 24.828125 -1.117188 L 24.628906 -1.148438 C 24.4375 -1.179688 24.226562 -1.199219 24 -1.214844 C 23.746094 -1.234375 23.386719 -1.242188 22.917969 -1.242188 C 22.550781 -1.242188 22.242188 -1.234375 21.992188 -1.214844 C 21.746094 -1.199219 21.503906 -1.175781 21.269531 -1.140625 L 21.167969 -1.125 Z M 20.070312 -11.027344 L 20.566406 -6.070312 L 19.863281 -11 C 20.335938 -11.070312 20.816406 -11.121094 21.304688 -11.152344 C 21.785156 -11.1875 22.324219 -11.203125 22.917969 -11.203125 C 23.613281 -11.203125 24.203125 -11.1875 24.683594 -11.152344 C 25.191406 -11.117188 25.675781 -11.066406 26.140625 -10.992188 L 25.386719 -6.070312 L 25.738281 -11.039062 C 25.320312 -11.070312 24.890625 -11.019531 24.445312 -10.890625 C 23.699219 -10.671875 23.054688 -10.269531 22.511719 -9.6875 C 21.984375 -9.121094 21.636719 -8.460938 21.46875 -7.714844 C 21.359375 -7.226562 21.339844 -6.757812 21.410156 -6.300781 C 21.304688 -6.988281 21.179688 -7.867188 21.039062 -8.9375 C 20.886719 -10.054688 20.757812 -11.257812 20.648438 -12.539062 C 20.539062 -13.882812 20.480469 -15.164062 20.480469 -16.390625 C 20.480469 -17.644531 20.539062 -18.9375 20.652344 -20.269531 C 20.757812 -21.535156 20.886719 -22.730469 21.035156 -23.859375 C 21.179688 -24.953125 21.304688 -25.808594 21.402344 -26.429688 C 21.34375 -26.011719 21.363281 -25.574219 21.464844 -25.117188 C 21.644531 -24.300781 22.035156 -23.585938 22.640625 -22.984375 C 23.246094 -22.378906 23.957031 -21.984375 24.777344 -21.804688 C 25.234375 -21.707031 25.671875 -21.683594 26.089844 -21.746094 L 25.929688 -21.722656 L 25.765625 -21.710938 C 25.480469 -21.6875 25.175781 -21.660156 24.855469 -21.625 C 24.316406 -21.570312 23.671875 -21.542969 22.917969 -21.542969 C 22.265625 -21.542969 21.671875 -21.570312 21.136719 -21.625 C 20.820312 -21.660156 20.511719 -21.6875 20.210938 -21.707031 L 20.140625 -21.710938 L 20.070312 -21.71875 C 20.414062 -21.683594 20.777344 -21.710938 21.167969 -21.796875 C 21.972656 -21.980469 22.679688 -22.371094 23.28125 -22.972656 C 23.933594 -23.625 24.339844 -24.390625 24.503906 -25.277344 C 24.589844 -25.742188 24.601562 -26.15625 24.535156 -26.511719 C 24.644531 -25.835938 24.769531 -24.953125 24.914062 -23.859375 C 25.0625 -22.746094 25.195312 -21.558594 25.316406 -20.296875 C 25.445312 -18.9375 25.507812 -17.636719 25.507812 -16.390625 C 25.507812 -15.148438 25.445312 -13.847656 25.316406 -12.488281 C 25.195312 -11.222656 25.0625 -10.039062 24.914062 -8.9375 C 24.769531 -7.867188 24.640625 -6.960938 24.527344 -6.210938 C 24.59375 -6.601562 24.585938 -7.019531 24.507812 -7.457031 C 24.355469 -8.316406 23.96875 -9.070312 23.351562 -9.710938 C 22.75 -10.335938 22.039062 -10.746094 21.222656 -10.9375 C 20.816406 -11.035156 20.433594 -11.0625 20.070312 -11.027344 Z M 7.132812 -17.199219 L 8.121094 -17.199219 C 7.8125 -17.199219 7.507812 -17.113281 7.195312 -16.9375 C 6.9375 -16.792969 6.75 -16.636719 6.632812 -16.460938 C 6.601562 -16.417969 6.585938 -16.386719 6.582031 -16.375 C 6.605469 -16.433594 6.628906 -16.519531 6.652344 -16.628906 C 6.738281 -17.023438 6.78125 -17.539062 6.78125 -18.175781 C 6.78125 -18.589844 6.761719 -18.902344 6.722656 -19.109375 C 6.71875 -19.125 6.71875 -19.132812 6.71875 -19.132812 C 6.722656 -19.109375 6.730469 -19.085938 6.742188 -19.054688 C 6.796875 -18.902344 6.878906 -18.746094 6.984375 -18.582031 C 7.265625 -18.152344 7.648438 -17.8125 8.132812 -17.566406 C 8.539062 -17.359375 8.941406 -17.253906 9.335938 -17.253906 C 9.835938 -17.253906 10.316406 -17.363281 10.777344 -17.582031 C 11.175781 -17.765625 11.507812 -18.007812 11.777344 -18.308594 C 12.027344 -18.585938 12.179688 -18.859375 12.238281 -19.132812 C 12.085938 -18.351562 12.027344 -17.453125 12.054688 -16.433594 C 12.09375 -15.011719 12.113281 -13.605469 12.113281 -12.21875 L 7.132812 -12.21875 Z M 7.132812 -7.238281 L 2.152344 -7.238281 L 2.152344 -12.21875 C 2.152344 -13.511719 2.136719 -14.828125 2.097656 -16.160156 C 2.050781 -17.898438 2.179688 -19.566406 2.484375 -21.164062 C 2.796875 -22.652344 3.429688 -23.925781 4.386719 -24.984375 C 5.011719 -25.675781 5.730469 -26.214844 6.542969 -26.597656 C 7.421875 -27.007812 8.351562 -27.214844 9.335938 -27.214844 C 10.539062 -27.214844 11.644531 -26.957031 12.660156 -26.4375 C 13.75 -25.882812 14.640625 -25.078125 15.324219 -24.03125 C 16.269531 -22.582031 16.742188 -20.632812 16.742188 -18.175781 C 16.742188 -15.171875 16.136719 -12.757812 14.921875 -10.9375 C 14.144531 -9.773438 13.1875 -8.875 12.042969 -8.238281 C 10.847656 -7.570312 9.539062 -7.238281 8.121094 -7.238281 Z M 7.132812 -7.238281 "/></g></g></g><g fill="#ffb829" fill-opacity="1"><g transform="translate(33.19253, 35.774712)"><g><path d="M 6.015625 5.101562 C 5.296875 5.179688 4.601562 5.148438 3.933594 5 C 2.964844 4.785156 2.117188 4.351562 1.386719 3.703125 C 0.652344 3.050781 0.125 2.253906 -0.203125 1.3125 C -0.429688 0.660156 -0.539062 -0.03125 -0.539062 -0.757812 C -0.5625 -2.585938 -0.675781 -4.441406 -0.875 -6.324219 C -1.082031 -8.289062 -1.332031 -10.25 -1.625 -12.199219 C -1.859375 -13.855469 -2.152344 -15.433594 -2.5 -16.941406 C -2.867188 -18.527344 -3.21875 -19.949219 -3.558594 -21.207031 C -3.898438 -22.476562 -4.175781 -23.46875 -4.390625 -24.183594 C -4.625 -25 -4.707031 -25.789062 -4.636719 -26.542969 C -4.53125 -27.667969 -4.128906 -28.667969 -3.433594 -29.539062 C -2.671875 -30.492188 -1.691406 -31.128906 -0.492188 -31.441406 C 0.273438 -31.640625 1.074219 -31.6875 1.910156 -31.574219 C 2.210938 -31.53125 2.527344 -31.496094 2.859375 -31.464844 C 3.128906 -31.441406 3.503906 -31.429688 3.984375 -31.429688 C 4.507812 -31.429688 4.90625 -31.441406 5.179688 -31.472656 L 6.546875 -31.625 L 7.097656 -26.675781 L 6.21875 -31.578125 C 6.988281 -31.714844 7.730469 -31.71875 8.453125 -31.585938 C 9.566406 -31.382812 10.523438 -30.894531 11.324219 -30.125 C 12.085938 -29.394531 12.601562 -28.503906 12.871094 -27.460938 C 13.039062 -26.808594 13.101562 -26.121094 13.050781 -25.394531 L 8.082031 -25.726562 L 13.0625 -25.726562 L 13.0625 -22.84375 C 13.0625 -21.671875 13.09375 -20.347656 13.152344 -18.871094 C 13.210938 -17.445312 13.324219 -15.992188 13.488281 -14.515625 L 8.539062 -13.964844 L 13.472656 -14.636719 C 13.617188 -13.5625 13.757812 -12.605469 13.890625 -11.769531 C 14.027344 -10.933594 14.164062 -10.113281 14.308594 -9.316406 C 14.46875 -8.441406 14.628906 -7.503906 14.785156 -6.507812 L 9.867188 -5.730469 L 4.945312 -6.507812 C 5.105469 -7.507812 5.261719 -8.441406 5.421875 -9.316406 L 5.871094 -11.855469 C 6.003906 -12.621094 6.128906 -13.511719 6.246094 -14.527344 C 6.410156 -15.996094 6.519531 -17.445312 6.578125 -18.871094 C 6.640625 -20.363281 6.675781 -21.707031 6.6875 -22.894531 C 6.699219 -24.058594 6.695312 -24.953125 6.671875 -25.585938 L 11.648438 -25.765625 L 6.679688 -25.421875 C 6.628906 -26.160156 6.695312 -26.859375 6.871094 -27.523438 C 7.15625 -28.582031 7.691406 -29.476562 8.480469 -30.203125 C 9.285156 -30.945312 10.238281 -31.410156 11.335938 -31.597656 C 12.039062 -31.71875 12.761719 -31.710938 13.511719 -31.578125 L 12.636719 -26.675781 L 13.1875 -31.625 L 14.550781 -31.472656 C 14.824219 -31.441406 15.222656 -31.429688 15.746094 -31.429688 C 16.230469 -31.429688 16.605469 -31.441406 16.871094 -31.464844 C 17.203125 -31.496094 17.503906 -31.527344 17.773438 -31.566406 C 18.632812 -31.683594 19.441406 -31.640625 20.203125 -31.449219 C 21.34375 -31.15625 22.296875 -30.570312 23.058594 -29.691406 C 23.8125 -28.820312 24.253906 -27.8125 24.390625 -26.65625 C 24.480469 -25.863281 24.410156 -25.058594 24.179688 -24.246094 C 23.949219 -23.476562 23.652344 -22.449219 23.296875 -21.164062 C 22.953125 -19.933594 22.605469 -18.535156 22.257812 -16.976562 C 21.914062 -15.4375 21.613281 -13.832031 21.351562 -12.167969 C 21.0625 -10.246094 20.820312 -8.316406 20.628906 -6.371094 C 20.4375 -4.472656 20.316406 -2.558594 20.269531 -0.636719 L 15.292969 -0.757812 L 20.273438 -0.757812 C 20.273438 -0.03125 20.160156 0.660156 19.933594 1.3125 C 19.609375 2.253906 19.078125 3.050781 18.34375 3.703125 C 17.613281 4.351562 16.765625 4.785156 15.796875 5 C 15.128906 5.148438 14.4375 5.179688 13.71875 5.101562 C 12.367188 4.945312 11.078125 4.875 9.851562 4.886719 C 8.582031 4.898438 7.289062 4.96875 5.976562 5.105469 Z M 4.953125 -4.800781 C 6.574219 -4.96875 8.179688 -5.0625 9.765625 -5.074219 C 11.398438 -5.089844 13.082031 -4.996094 14.816406 -4.796875 C 14.441406 -4.839844 14.046875 -4.816406 13.636719 -4.722656 C 12.921875 -4.566406 12.285156 -4.238281 11.726562 -3.742188 C 11.164062 -3.242188 10.761719 -2.644531 10.519531 -1.945312 C 10.382812 -1.542969 10.3125 -1.148438 10.3125 -0.757812 L 10.3125 -0.882812 C 10.367188 -3.054688 10.5 -5.214844 10.714844 -7.363281 C 10.925781 -9.46875 11.191406 -11.585938 11.511719 -13.710938 C 11.804688 -15.585938 12.148438 -17.398438 12.535156 -19.144531 C 12.921875 -20.875 13.3125 -22.441406 13.699219 -23.839844 C 14.078125 -25.1875 14.375 -26.234375 14.601562 -26.980469 C 14.46875 -26.519531 14.433594 -26.03125 14.496094 -25.507812 C 14.597656 -24.625 14.941406 -23.847656 15.53125 -23.167969 C 16.128906 -22.476562 16.863281 -22.019531 17.734375 -21.796875 C 18.222656 -21.671875 18.703125 -21.644531 19.183594 -21.707031 C 18.746094 -21.644531 18.273438 -21.589844 17.773438 -21.542969 C 17.207031 -21.492188 16.53125 -21.46875 15.746094 -21.46875 C 14.855469 -21.46875 14.089844 -21.503906 13.453125 -21.574219 L 11.921875 -21.742188 L 11.761719 -21.773438 C 12.152344 -21.703125 12.570312 -21.703125 13.015625 -21.78125 C 13.855469 -21.921875 14.59375 -22.292969 15.234375 -22.882812 C 15.859375 -23.457031 16.277344 -24.144531 16.492188 -24.945312 C 16.601562 -25.351562 16.644531 -25.738281 16.617188 -26.105469 L 16.625 -26.023438 L 16.625 -25.941406 C 16.65625 -25.15625 16.660156 -24.109375 16.648438 -22.792969 C 16.636719 -21.5 16.597656 -20.058594 16.53125 -18.464844 C 16.460938 -16.804688 16.332031 -15.117188 16.140625 -13.402344 C 16.003906 -12.191406 15.851562 -11.09375 15.679688 -10.113281 L 15.222656 -7.53125 C 15.078125 -6.734375 14.929688 -5.875 14.785156 -4.953125 L 4.945312 -4.953125 C 4.800781 -5.875 4.65625 -6.734375 4.511719 -7.53125 C 4.351562 -8.402344 4.199219 -9.292969 4.054688 -10.199219 C 3.910156 -11.109375 3.761719 -12.140625 3.601562 -13.289062 L 3.585938 -13.414062 C 3.398438 -15.121094 3.269531 -16.804688 3.199219 -18.464844 C 3.136719 -20.074219 3.101562 -21.535156 3.101562 -22.84375 L 3.101562 -25.894531 L 3.113281 -26.058594 C 3.089844 -25.714844 3.128906 -25.347656 3.226562 -24.964844 C 3.429688 -24.191406 3.828125 -23.515625 4.421875 -22.941406 C 5.058594 -22.328125 5.804688 -21.945312 6.660156 -21.789062 C 7.121094 -21.703125 7.558594 -21.699219 7.972656 -21.773438 L 7.808594 -21.742188 L 6.28125 -21.574219 C 5.640625 -21.503906 4.875 -21.46875 3.984375 -21.46875 C 3.203125 -21.46875 2.527344 -21.492188 1.957031 -21.542969 C 1.457031 -21.589844 1 -21.640625 0.59375 -21.699219 C 1.050781 -21.640625 1.53125 -21.675781 2.03125 -21.804688 C 2.960938 -22.050781 3.734375 -22.554688 4.34375 -23.316406 C 4.890625 -24 5.203125 -24.765625 5.28125 -25.621094 C 5.328125 -26.105469 5.28125 -26.578125 5.148438 -27.042969 C 5.390625 -26.238281 5.695312 -25.15625 6.0625 -23.796875 C 6.429688 -22.421875 6.8125 -20.882812 7.207031 -19.183594 C 7.617188 -17.398438 7.957031 -15.566406 8.226562 -13.679688 C 8.539062 -11.582031 8.808594 -9.480469 9.03125 -7.371094 C 9.261719 -5.183594 9.390625 -2.976562 9.421875 -0.757812 C 9.421875 -1.148438 9.351562 -1.542969 9.210938 -1.945312 C 8.96875 -2.644531 8.566406 -3.242188 8.003906 -3.742188 C 7.445312 -4.238281 6.808594 -4.566406 6.097656 -4.722656 C 5.6875 -4.816406 5.292969 -4.839844 4.914062 -4.796875 Z M 4.953125 -4.800781 "/></g></g></g><g fill="#ffb829" fill-opacity="1"><g transform="translate(52.92749, 35.774712)"><g/></g></g><g fill="#f7f8ef" fill-opacity="1"><g transform="translate(6.064131, 35.774712)"><g><path d="M 20.109375 2.125 C 18.816406 2.125 17.710938 1.914062 16.796875 1.5 C 15.890625 1.082031 15.125 0.539062 14.5 -0.125 C 13.882812 -0.800781 13.363281 -1.523438 12.9375 -2.296875 C 12.507812 -3.066406 12.140625 -3.816406 11.828125 -4.546875 C 11.523438 -5.285156 11.238281 -5.921875 10.96875 -6.453125 C 10.4375 -7.410156 9.925781 -8.109375 9.4375 -8.546875 C 8.957031 -8.992188 8.210938 -9.269531 7.203125 -9.375 C 7.304688 -7.445312 7.460938 -5.753906 7.671875 -4.296875 C 7.890625 -2.847656 8.078125 -1.71875 8.234375 -0.90625 C 8.410156 -0.175781 8.117188 0.148438 7.359375 0.078125 C 6.929688 0.00390625 6.492188 -0.0507812 6.046875 -0.09375 C 5.609375 -0.132812 5.046875 -0.15625 4.359375 -0.15625 C 3.734375 -0.15625 3.195312 -0.132812 2.75 -0.09375 C 2.3125 -0.0507812 1.914062 -0.0078125 1.5625 0.03125 C 1.207031 0.0820312 0.941406 0.0195312 0.765625 -0.15625 C 0.585938 -0.332031 0.535156 -0.582031 0.609375 -0.90625 C 0.753906 -1.644531 0.914062 -2.644531 1.09375 -3.90625 C 1.269531 -5.164062 1.425781 -6.601562 1.5625 -8.21875 C 1.707031 -9.84375 1.78125 -11.53125 1.78125 -13.28125 C 1.78125 -15.050781 1.707031 -16.75 1.5625 -18.375 C 1.425781 -20.007812 1.269531 -21.460938 1.09375 -22.734375 C 0.914062 -24.015625 0.753906 -25.007812 0.609375 -25.71875 C 0.453125 -26.425781 0.769531 -26.742188 1.5625 -26.671875 C 2.414062 -26.566406 3.164062 -26.523438 3.8125 -26.546875 C 4.457031 -26.578125 5.113281 -26.628906 5.78125 -26.703125 C 6.457031 -26.785156 7.238281 -26.828125 8.125 -26.828125 C 11.050781 -26.796875 13.28125 -26.046875 14.8125 -24.578125 C 16.34375 -23.117188 17.109375 -20.984375 17.109375 -18.171875 C 17.109375 -16.472656 16.820312 -15.046875 16.25 -13.890625 C 15.6875 -12.742188 14.875 -11.859375 13.8125 -11.234375 C 13.832031 -11.234375 13.847656 -11.222656 13.859375 -11.203125 C 13.878906 -11.191406 13.890625 -11.1875 13.890625 -11.1875 L 13.8125 -11.15625 C 14.539062 -10.726562 15.113281 -10.222656 15.53125 -9.640625 C 15.945312 -9.054688 16.320312 -8.4375 16.65625 -7.78125 C 17.1875 -6.5625 17.753906 -5.695312 18.359375 -5.1875 C 18.960938 -4.6875 19.617188 -4.378906 20.328125 -4.265625 C 21.035156 -4.148438 21.796875 -4.09375 22.609375 -4.09375 C 23.117188 -4.09375 23.597656 -4.148438 24.046875 -4.265625 C 24.503906 -4.378906 24.972656 -4.523438 25.453125 -4.703125 C 26.160156 -4.984375 26.488281 -4.742188 26.4375 -3.984375 C 26.382812 -3.253906 26.351562 -2.394531 26.34375 -1.40625 C 26.332031 -0.414062 26.363281 0.441406 26.4375 1.171875 C 26.488281 1.878906 26.160156 2.1875 25.453125 2.09375 C 24.640625 2.039062 23.957031 2.019531 23.40625 2.03125 C 22.851562 2.039062 22.328125 2.054688 21.828125 2.078125 C 21.335938 2.109375 20.765625 2.125 20.109375 2.125 Z M 20.5625 -6.0625 C 19.800781 -5.988281 19.484375 -6.320312 19.609375 -7.0625 C 19.710938 -7.71875 19.832031 -8.5625 19.96875 -9.59375 C 20.113281 -10.632812 20.242188 -11.753906 20.359375 -12.953125 C 20.472656 -14.148438 20.53125 -15.296875 20.53125 -16.390625 C 20.53125 -17.472656 20.472656 -18.613281 20.359375 -19.8125 C 20.242188 -21.019531 20.113281 -22.144531 19.96875 -23.1875 C 19.832031 -24.238281 19.710938 -25.082031 19.609375 -25.71875 C 19.484375 -26.425781 19.800781 -26.742188 20.5625 -26.671875 C 20.914062 -26.640625 21.273438 -26.601562 21.640625 -26.5625 C 22.003906 -26.53125 22.429688 -26.515625 22.921875 -26.515625 C 23.492188 -26.515625 23.960938 -26.53125 24.328125 -26.5625 C 24.703125 -26.601562 25.050781 -26.640625 25.375 -26.671875 C 25.726562 -26.722656 25.988281 -26.664062 26.15625 -26.5 C 26.320312 -26.332031 26.378906 -26.070312 26.328125 -25.71875 C 26.222656 -25.082031 26.101562 -24.238281 25.96875 -23.1875 C 25.832031 -22.144531 25.710938 -21.03125 25.609375 -19.84375 C 25.503906 -18.65625 25.453125 -17.503906 25.453125 -16.390625 C 25.453125 -15.296875 25.503906 -14.148438 25.609375 -12.953125 C 25.710938 -11.753906 25.832031 -10.632812 25.96875 -9.59375 C 26.101562 -8.5625 26.222656 -7.71875 26.328125 -7.0625 C 26.378906 -6.726562 26.320312 -6.472656 26.15625 -6.296875 C 25.988281 -6.117188 25.726562 -6.039062 25.375 -6.0625 C 25.050781 -6.113281 24.703125 -6.148438 24.328125 -6.171875 C 23.960938 -6.203125 23.492188 -6.21875 22.921875 -6.21875 C 22.429688 -6.21875 22.003906 -6.203125 21.640625 -6.171875 C 21.273438 -6.148438 20.914062 -6.113281 20.5625 -6.0625 Z M 7.125 -12.21875 L 8.125 -12.21875 C 9.226562 -12.21875 10.109375 -12.707031 10.765625 -13.6875 C 11.429688 -14.675781 11.765625 -16.171875 11.765625 -18.171875 C 11.765625 -19.640625 11.5625 -20.679688 11.15625 -21.296875 C 10.75 -21.921875 10.140625 -22.234375 9.328125 -22.234375 C 8.847656 -22.234375 8.429688 -22.035156 8.078125 -21.640625 C 7.722656 -21.253906 7.484375 -20.753906 7.359375 -20.140625 C 7.128906 -18.953125 7.03125 -17.664062 7.0625 -16.28125 C 7.101562 -14.90625 7.125 -13.550781 7.125 -12.21875 Z M 7.125 -12.21875 "/></g></g></g><g fill="#f7f8ef" fill-opacity="1"><g transform="translate(33.19253, 35.774712)"><g><path d="M 5.46875 0.15625 C 4.78125 0.226562 4.4375 -0.078125 4.4375 -0.765625 C 4.414062 -2.785156 4.296875 -4.8125 4.078125 -6.84375 C 3.859375 -8.882812 3.597656 -10.914062 3.296875 -12.9375 C 3.046875 -14.707031 2.726562 -16.414062 2.34375 -18.0625 C 1.96875 -19.707031 1.601562 -21.1875 1.25 -22.5 C 0.894531 -23.8125 0.601562 -24.847656 0.375 -25.609375 C 0.28125 -25.960938 0.304688 -26.234375 0.453125 -26.421875 C 0.609375 -26.609375 0.875 -26.675781 1.25 -26.625 C 1.601562 -26.582031 1.988281 -26.539062 2.40625 -26.5 C 2.820312 -26.457031 3.347656 -26.4375 3.984375 -26.4375 C 4.691406 -26.4375 5.269531 -26.460938 5.71875 -26.515625 C 6.175781 -26.566406 6.632812 -26.617188 7.09375 -26.671875 C 7.800781 -26.796875 8.128906 -26.476562 8.078125 -25.71875 C 8.078125 -25.039062 8.078125 -24.082031 8.078125 -22.84375 C 8.078125 -21.601562 8.109375 -20.207031 8.171875 -18.65625 C 8.234375 -17.113281 8.351562 -15.550781 8.53125 -13.96875 C 8.6875 -12.851562 8.832031 -11.859375 8.96875 -10.984375 C 9.113281 -10.109375 9.257812 -9.253906 9.40625 -8.421875 C 9.5625 -7.585938 9.710938 -6.691406 9.859375 -5.734375 C 10.015625 -6.691406 10.164062 -7.585938 10.3125 -8.421875 C 10.46875 -9.253906 10.617188 -10.109375 10.765625 -10.984375 C 10.921875 -11.859375 11.0625 -12.851562 11.1875 -13.96875 C 11.363281 -15.550781 11.484375 -17.113281 11.546875 -18.65625 C 11.609375 -20.207031 11.644531 -21.601562 11.65625 -22.84375 C 11.675781 -24.082031 11.671875 -25.054688 11.640625 -25.765625 C 11.597656 -26.492188 11.929688 -26.796875 12.640625 -26.671875 C 13.085938 -26.617188 13.539062 -26.566406 14 -26.515625 C 14.457031 -26.460938 15.039062 -26.4375 15.75 -26.4375 C 16.375 -26.4375 16.894531 -26.457031 17.3125 -26.5 C 17.726562 -26.539062 18.113281 -26.582031 18.46875 -26.625 C 18.851562 -26.675781 19.125 -26.609375 19.28125 -26.421875 C 19.445312 -26.234375 19.484375 -25.960938 19.390625 -25.609375 C 19.160156 -24.847656 18.859375 -23.8125 18.484375 -22.5 C 18.117188 -21.1875 17.753906 -19.707031 17.390625 -18.0625 C 17.023438 -16.414062 16.703125 -14.707031 16.421875 -12.9375 C 16.117188 -10.914062 15.863281 -8.890625 15.65625 -6.859375 C 15.457031 -4.835938 15.332031 -2.804688 15.28125 -0.765625 C 15.28125 -0.078125 14.941406 0.226562 14.265625 0.15625 C 12.722656 -0.0195312 11.234375 -0.101562 9.796875 -0.09375 C 8.367188 -0.0820312 6.925781 0 5.46875 0.15625 Z M 5.46875 0.15625 "/></g></g></g><g fill="#f7f8ef" fill-opacity="1"><g transform="translate(52.92749, 35.774712)"><g/></g></g></g></g><g transform="matrix(1, 0, 0, 1, 11, 20)"><g clip-path="url(#739cca1be4)"><g clip-path="url(#d82309c159)"><g fill="#ffb829" fill-opacity="1"><g transform="translate(5.167643, 42.269309)"><g><path d="M 30.921875 6.019531 C 29.226562 6.019531 27.714844 5.71875 26.390625 5.109375 C 25.117188 4.527344 24.027344 3.746094 23.125 2.769531 C 22.367188 1.953125 21.726562 1.0625 21.199219 0.101562 C 20.773438 -0.675781 20.398438 -1.4375 20.082031 -2.175781 C 19.855469 -2.695312 19.652344 -3.132812 19.464844 -3.488281 C 19.351562 -3.707031 19.234375 -3.875 19.105469 -3.988281 C 19.175781 -3.921875 19.25 -3.875 19.324219 -3.839844 C 19.335938 -3.835938 19.34375 -3.832031 19.347656 -3.832031 C 19.328125 -3.835938 19.300781 -3.84375 19.269531 -3.847656 L 19.921875 -7.996094 L 24.113281 -8.210938 C 24.191406 -6.699219 24.3125 -5.382812 24.476562 -4.265625 C 24.644531 -3.117188 24.789062 -2.25 24.917969 -1.664062 C 25.070312 -1.011719 25.089844 -0.351562 24.976562 0.3125 C 24.824219 1.191406 24.460938 1.964844 23.878906 2.636719 C 23.292969 3.3125 22.566406 3.789062 21.707031 4.0625 C 21.085938 4.257812 20.433594 4.332031 19.75 4.28125 L 19.511719 4.265625 L 19.277344 4.222656 C 19.078125 4.183594 18.855469 4.15625 18.613281 4.136719 C 18.347656 4.113281 17.992188 4.101562 17.554688 4.101562 C 17.140625 4.101562 16.796875 4.113281 16.53125 4.136719 C 16.226562 4.160156 15.96875 4.1875 15.75 4.21875 C 15.050781 4.328125 14.359375 4.289062 13.675781 4.097656 C 12.808594 3.859375 12.0625 3.410156 11.449219 2.753906 C 10.828125 2.085938 10.429688 1.304688 10.253906 0.40625 C 10.117188 -0.285156 10.132812 -0.992188 10.300781 -1.710938 L 14.390625 -0.765625 L 10.253906 -1.480469 C 10.351562 -2.054688 10.472656 -2.855469 10.617188 -3.875 C 10.753906 -4.867188 10.878906 -6.007812 10.992188 -7.296875 C 11.097656 -8.542969 11.152344 -9.839844 11.152344 -11.191406 C 11.152344 -12.511719 11.101562 -13.785156 11.003906 -15.015625 C 10.90625 -16.28125 10.796875 -17.34375 10.679688 -18.203125 L 14.835938 -18.769531 L 15.058594 -14.578125 C 14.636719 -14.558594 14.015625 -14.53125 13.199219 -14.496094 L 10.425781 -14.398438 C 9.410156 -14.367188 8.378906 -14.328125 7.339844 -14.273438 C 6.316406 -14.222656 5.363281 -14.164062 4.476562 -14.089844 C 3.628906 -14.023438 2.9375 -13.953125 2.394531 -13.878906 L 1.824219 -18.035156 L 2.585938 -13.910156 C 1.941406 -13.789062 1.316406 -13.785156 0.710938 -13.890625 C -0.257812 -14.066406 -1.085938 -14.496094 -1.769531 -15.179688 C -2.410156 -15.824219 -2.832031 -16.597656 -3.03125 -17.507812 C -3.152344 -18.054688 -3.183594 -18.632812 -3.121094 -19.234375 L -3.109375 -19.339844 L -3.09375 -19.441406 C -3.039062 -19.785156 -3.015625 -20.183594 -3.015625 -20.640625 C -3.015625 -21.089844 -3.039062 -21.472656 -3.089844 -21.785156 L -3.105469 -21.894531 L -3.117188 -22 C -3.179688 -22.585938 -3.15625 -23.148438 -3.042969 -23.6875 C -2.871094 -24.527344 -2.507812 -25.257812 -1.953125 -25.886719 C -1.355469 -26.558594 -0.621094 -27.023438 0.25 -27.28125 C 0.84375 -27.453125 1.464844 -27.515625 2.113281 -27.464844 C 2.757812 -27.429688 3.625 -27.40625 4.722656 -27.398438 C 5.871094 -27.386719 7.105469 -27.382812 8.425781 -27.382812 C 9.734375 -27.382812 11.011719 -27.390625 12.257812 -27.414062 L 15.589844 -27.476562 C 17.808594 -27.546875 19.800781 -27.480469 21.570312 -27.273438 C 23.664062 -27.03125 25.472656 -26.503906 27.003906 -25.695312 C 28.855469 -24.710938 30.253906 -23.285156 31.199219 -21.414062 C 32.042969 -19.742188 32.464844 -17.710938 32.464844 -15.316406 C 32.464844 -13.269531 32.097656 -11.472656 31.363281 -9.925781 C 30.523438 -8.160156 29.261719 -6.792969 27.578125 -5.828125 L 25.488281 -9.464844 L 27.523438 -13.136719 C 28.515625 -12.585938 29.34375 -11.9375 30.011719 -11.1875 C 30.648438 -10.472656 31.25 -9.492188 31.808594 -8.246094 C 32.011719 -7.804688 32.175781 -7.503906 32.300781 -7.339844 C 32.167969 -7.511719 31.988281 -7.648438 31.761719 -7.742188 C 31.730469 -7.753906 31.707031 -7.761719 31.6875 -7.769531 C 31.699219 -7.765625 31.714844 -7.761719 31.738281 -7.757812 C 31.851562 -7.734375 31.996094 -7.71875 32.171875 -7.707031 C 32.828125 -7.671875 33.691406 -7.652344 34.761719 -7.652344 C 35.15625 -7.652344 35.730469 -7.671875 36.476562 -7.710938 C 37.207031 -7.746094 37.988281 -7.816406 38.816406 -7.910156 C 39.535156 -7.996094 40.160156 -8.105469 40.6875 -8.246094 L 40.785156 -8.273438 L 40.882812 -8.292969 C 41.476562 -8.421875 42.054688 -8.453125 42.613281 -8.390625 C 43.5625 -8.285156 44.394531 -7.933594 45.109375 -7.332031 C 45.867188 -6.695312 46.371094 -5.890625 46.617188 -4.914062 C 46.769531 -4.324219 46.808594 -3.703125 46.734375 -3.054688 C 46.6875 -2.582031 46.664062 -1.980469 46.664062 -1.246094 C 46.664062 -0.515625 46.6875 0.0859375 46.738281 0.558594 C 46.800781 1.132812 46.773438 1.691406 46.660156 2.238281 C 46.484375 3.066406 46.121094 3.789062 45.570312 4.410156 C 45 5.058594 44.296875 5.515625 43.464844 5.78125 C 42.894531 5.960938 42.296875 6.042969 41.667969 6.015625 C 40.953125 5.976562 40.113281 5.949219 39.144531 5.941406 C 38.140625 5.929688 37.113281 5.929688 36.066406 5.941406 C 35.007812 5.949219 34.035156 5.964844 33.148438 5.988281 C 32.210938 6.007812 31.46875 6.019531 30.921875 6.019531 Z M 30.921875 -2.375 C 31.402344 -2.375 32.078125 -2.386719 32.949219 -2.40625 C 33.875 -2.425781 34.886719 -2.445312 35.980469 -2.453125 C 37.085938 -2.464844 38.171875 -2.464844 39.234375 -2.453125 C 40.335938 -2.441406 41.253906 -2.414062 41.988281 -2.371094 C 41.636719 -2.386719 41.273438 -2.332031 40.90625 -2.214844 C 40.273438 -2.011719 39.730469 -1.65625 39.28125 -1.148438 C 38.855469 -0.667969 38.578125 -0.121094 38.445312 0.496094 C 38.375 0.828125 38.355469 1.140625 38.386719 1.421875 C 38.308594 0.660156 38.269531 -0.230469 38.269531 -1.246094 C 38.269531 -2.261719 38.308594 -3.171875 38.390625 -3.980469 C 38.351562 -3.621094 38.378906 -3.246094 38.480469 -2.851562 C 38.675781 -2.078125 39.085938 -1.425781 39.710938 -0.902344 C 40.292969 -0.414062 40.953125 -0.128906 41.6875 -0.046875 C 42.027344 -0.0078125 42.347656 -0.0234375 42.644531 -0.0859375 L 41.761719 -4.1875 L 42.835938 -0.132812 C 41.917969 0.113281 40.902344 0.296875 39.785156 0.429688 C 38.78125 0.546875 37.824219 0.628906 36.914062 0.675781 C 36.019531 0.722656 35.300781 0.742188 34.761719 0.742188 C 33.527344 0.742188 32.503906 0.71875 31.6875 0.671875 C 30.472656 0.601562 29.417969 0.378906 28.519531 0.00390625 C 27.375 -0.476562 26.417969 -1.21875 25.644531 -2.222656 C 25.132812 -2.890625 24.632812 -3.75 24.152344 -4.800781 C 24.023438 -5.085938 23.90625 -5.320312 23.800781 -5.5 C 23.769531 -5.554688 23.738281 -5.601562 23.714844 -5.632812 L 23.710938 -5.636719 C 23.722656 -5.628906 23.730469 -5.613281 23.746094 -5.601562 C 23.707031 -5.640625 23.609375 -5.707031 23.449219 -5.796875 L 16.953125 -9.402344 L 23.394531 -13.105469 C 23.566406 -13.203125 23.695312 -13.34375 23.78125 -13.53125 C 23.976562 -13.933594 24.070312 -14.53125 24.070312 -15.316406 C 24.070312 -16.378906 23.949219 -17.148438 23.707031 -17.628906 C 23.5625 -17.914062 23.351562 -18.128906 23.074219 -18.277344 C 22.472656 -18.59375 21.652344 -18.8125 20.605469 -18.933594 C 19.246094 -19.09375 17.625 -19.140625 15.75 -19.082031 L 12.398438 -19.019531 C 11.105469 -18.996094 9.78125 -18.988281 8.425781 -18.988281 C 7.082031 -18.988281 5.820312 -18.992188 4.644531 -19.003906 C 3.417969 -19.015625 2.359375 -19.042969 1.46875 -19.09375 C 1.839844 -19.066406 2.222656 -19.109375 2.613281 -19.222656 C 3.289062 -19.421875 3.863281 -19.789062 4.335938 -20.324219 C 4.765625 -20.8125 5.046875 -21.363281 5.175781 -21.984375 C 5.242188 -22.304688 5.257812 -22.609375 5.230469 -22.894531 L 1.054688 -22.449219 L 5.199219 -23.113281 C 5.320312 -22.359375 5.378906 -21.535156 5.378906 -20.640625 C 5.378906 -19.757812 5.320312 -18.929688 5.203125 -18.164062 L 1.054688 -18.804688 L 5.230469 -18.371094 C 5.261719 -18.664062 5.238281 -18.976562 5.167969 -19.308594 C 5.015625 -19.996094 4.683594 -20.601562 4.167969 -21.117188 C 3.609375 -21.671875 2.953125 -22.019531 2.191406 -22.15625 C 1.792969 -22.226562 1.417969 -22.230469 1.058594 -22.164062 L 1.152344 -22.179688 L 1.25 -22.195312 C 1.945312 -22.289062 2.796875 -22.378906 3.804688 -22.460938 C 4.773438 -22.539062 5.8125 -22.605469 6.921875 -22.660156 C 8.015625 -22.714844 9.085938 -22.757812 10.132812 -22.789062 L 12.863281 -22.886719 C 13.644531 -22.917969 14.230469 -22.941406 14.617188 -22.964844 L 18.476562 -23.164062 L 18.996094 -19.339844 C 19.136719 -18.320312 19.261719 -17.101562 19.375 -15.679688 C 19.488281 -14.226562 19.546875 -12.730469 19.546875 -11.191406 C 19.546875 -9.601562 19.484375 -8.0625 19.355469 -6.578125 C 19.230469 -5.140625 19.089844 -3.851562 18.929688 -2.710938 C 18.777344 -1.601562 18.640625 -0.714844 18.527344 -0.0546875 L 18.507812 0.0625 L 18.480469 0.175781 C 18.582031 -0.265625 18.585938 -0.722656 18.492188 -1.199219 C 18.363281 -1.878906 18.058594 -2.46875 17.585938 -2.976562 C 17.121094 -3.476562 16.558594 -3.816406 15.902344 -3.996094 C 15.433594 -4.125 14.988281 -4.15625 14.5625 -4.089844 C 14.945312 -4.144531 15.367188 -4.191406 15.832031 -4.230469 C 16.332031 -4.273438 16.90625 -4.292969 17.554688 -4.292969 C 18.226562 -4.292969 18.8125 -4.273438 19.3125 -4.230469 C 19.839844 -4.1875 20.34375 -4.121094 20.824219 -4.03125 L 20.050781 0.0976562 L 20.347656 -4.089844 C 19.964844 -4.117188 19.570312 -4.070312 19.167969 -3.941406 C 18.527344 -3.738281 17.980469 -3.378906 17.535156 -2.859375 C 17.089844 -2.351562 16.8125 -1.765625 16.699219 -1.101562 C 16.625 -0.65625 16.628906 -0.246094 16.71875 0.128906 C 16.546875 -0.648438 16.363281 -1.710938 16.167969 -3.058594 C 15.96875 -4.433594 15.824219 -6.007812 15.730469 -7.777344 L 15.460938 -12.949219 L 20.578125 -12.140625 C 22.203125 -11.882812 23.578125 -11.25 24.707031 -10.242188 C 25.601562 -9.441406 26.332031 -8.488281 26.902344 -7.382812 C 27.1875 -6.84375 27.480469 -6.214844 27.789062 -5.5 C 28.003906 -5.003906 28.261719 -4.480469 28.558594 -3.9375 C 28.757812 -3.578125 29 -3.242188 29.289062 -2.929688 C 29.429688 -2.777344 29.632812 -2.640625 29.890625 -2.519531 C 30.101562 -2.421875 30.445312 -2.375 30.921875 -2.375 Z M 30.222656 -1.441406 C 29.554688 -1.390625 28.914062 -1.460938 28.300781 -1.648438 C 27.480469 -1.902344 26.78125 -2.339844 26.199219 -2.964844 C 25.515625 -3.699219 25.113281 -4.570312 24.988281 -5.570312 C 24.898438 -6.273438 24.964844 -6.980469 25.183594 -7.695312 L 29.195312 -6.460938 L 25.125 -7.476562 C 25.308594 -8.210938 25.554688 -9.277344 25.867188 -10.671875 C 26.171875 -12.03125 26.457031 -13.480469 26.722656 -15.011719 C 26.914062 -16.207031 27.066406 -17.390625 27.175781 -18.566406 C 27.28125 -19.730469 27.347656 -20.828125 27.367188 -21.855469 C 27.363281 -22.4375 27.46875 -23.011719 27.679688 -23.578125 C 27.96875 -24.363281 28.429688 -25.019531 29.054688 -25.554688 C 29.644531 -26.058594 30.320312 -26.398438 31.089844 -26.578125 C 31.613281 -26.699219 32.164062 -26.742188 32.734375 -26.699219 C 33.261719 -26.660156 33.917969 -26.632812 34.707031 -26.613281 C 35.488281 -26.59375 36.265625 -26.59375 37.035156 -26.613281 C 37.8125 -26.632812 38.46875 -26.660156 39.003906 -26.699219 C 39.570312 -26.742188 40.121094 -26.699219 40.660156 -26.570312 C 41.433594 -26.378906 42.117188 -26.023438 42.707031 -25.503906 C 43.316406 -24.964844 43.757812 -24.308594 44.035156 -23.53125 C 44.230469 -22.976562 44.328125 -22.394531 44.328125 -21.777344 C 44.347656 -20.675781 44.414062 -19.558594 44.519531 -18.433594 C 44.625 -17.296875 44.777344 -16.152344 44.972656 -14.996094 C 45.234375 -13.519531 45.523438 -12.105469 45.847656 -10.761719 C 46.195312 -9.304688 46.457031 -8.164062 46.632812 -7.347656 L 42.53125 -6.460938 L 46.578125 -7.574219 C 46.757812 -6.925781 46.816406 -6.285156 46.757812 -5.660156 C 46.65625 -4.609375 46.253906 -3.703125 45.550781 -2.941406 C 44.898438 -2.234375 44.089844 -1.769531 43.125 -1.550781 C 42.570312 -1.425781 41.988281 -1.390625 41.371094 -1.449219 L 41.269531 -1.457031 L 41.167969 -1.472656 C 40.917969 -1.507812 40.519531 -1.527344 39.972656 -1.527344 C 39.574219 -1.527344 39.242188 -1.523438 38.980469 -1.511719 C 38.839844 -1.507812 38.710938 -1.496094 38.597656 -1.480469 L 37.957031 -5.628906 L 38.75 -1.507812 C 38.117188 -1.382812 37.503906 -1.375 36.902344 -1.472656 C 36.007812 -1.625 35.222656 -1.996094 34.554688 -2.589844 C 33.917969 -3.152344 33.460938 -3.84375 33.191406 -4.667969 C 33.015625 -5.199219 32.929688 -5.765625 32.929688 -6.363281 L 32.929688 -6.496094 L 32.9375 -6.625 C 32.972656 -7.164062 32.96875 -7.910156 32.933594 -8.851562 L 37.125 -9.019531 L 37.125 -4.820312 L 34.601562 -4.820312 L 34.601562 -9.019531 L 38.792969 -8.851562 C 38.757812 -7.910156 38.757812 -7.164062 38.789062 -6.625 L 38.796875 -6.496094 L 38.796875 -6.363281 C 38.796875 -5.742188 38.699219 -5.15625 38.507812 -4.605469 C 38.222656 -3.789062 37.753906 -3.105469 37.105469 -2.550781 C 36.464844 -2.007812 35.722656 -1.65625 34.878906 -1.5 C 34.3125 -1.394531 33.726562 -1.386719 33.121094 -1.476562 C 32.992188 -1.496094 32.859375 -1.507812 32.722656 -1.511719 C 32.476562 -1.523438 32.140625 -1.527344 31.722656 -1.527344 C 31.179688 -1.527344 30.753906 -1.507812 30.441406 -1.464844 Z M 29.578125 -9.8125 L 29.898438 -5.628906 L 29.355469 -9.789062 C 30.027344 -9.878906 30.816406 -9.921875 31.722656 -9.921875 C 32.242188 -9.921875 32.675781 -9.914062 33.023438 -9.902344 C 33.484375 -9.886719 33.929688 -9.84375 34.351562 -9.78125 C 34.035156 -9.828125 33.699219 -9.820312 33.351562 -9.753906 C 32.722656 -9.636719 32.160156 -9.367188 31.664062 -8.945312 C 31.160156 -8.515625 30.800781 -7.992188 30.585938 -7.382812 C 30.464844 -7.035156 30.402344 -6.695312 30.402344 -6.363281 L 34.601562 -6.363281 L 30.410156 -6.101562 C 30.359375 -6.925781 30.359375 -7.953125 30.40625 -9.183594 L 30.5625 -13.214844 L 41.164062 -13.214844 L 41.320312 -9.183594 C 41.367188 -7.953125 41.367188 -6.925781 41.316406 -6.101562 L 37.125 -6.363281 L 41.324219 -6.363281 C 41.324219 -6.664062 41.269531 -6.972656 41.164062 -7.292969 C 40.964844 -7.910156 40.613281 -8.433594 40.117188 -8.875 C 39.582031 -9.347656 38.972656 -9.640625 38.285156 -9.753906 C 37.894531 -9.820312 37.519531 -9.816406 37.164062 -9.75 L 37.242188 -9.765625 L 37.320312 -9.777344 C 37.761719 -9.84375 38.21875 -9.886719 38.691406 -9.902344 C 39.050781 -9.914062 39.476562 -9.921875 39.972656 -9.921875 C 40.917969 -9.921875 41.710938 -9.875 42.355469 -9.785156 L 41.761719 -5.628906 L 42.15625 -9.808594 C 41.878906 -9.832031 41.582031 -9.808594 41.265625 -9.738281 C 40.535156 -9.570312 39.90625 -9.203125 39.382812 -8.636719 C 38.804688 -8.011719 38.480469 -7.285156 38.398438 -6.457031 C 38.363281 -6.058594 38.390625 -5.683594 38.484375 -5.34375 L 38.453125 -5.457031 L 38.429688 -5.574219 C 38.265625 -6.332031 38.015625 -7.410156 37.679688 -8.808594 C 37.320312 -10.320312 36.992188 -11.914062 36.699219 -13.59375 C 36.46875 -14.953125 36.289062 -16.300781 36.160156 -17.640625 C 36.035156 -18.984375 35.957031 -20.363281 35.933594 -21.777344 C 35.933594 -21.425781 36 -21.074219 36.125 -20.714844 C 36.332031 -20.132812 36.671875 -19.632812 37.144531 -19.214844 C 37.59375 -18.820312 38.101562 -18.550781 38.671875 -18.414062 C 39 -18.332031 39.308594 -18.304688 39.601562 -18.324219 C 38.9375 -18.277344 38.15625 -18.242188 37.25 -18.21875 C 36.335938 -18.199219 35.417969 -18.199219 34.496094 -18.21875 C 33.578125 -18.242188 32.785156 -18.277344 32.117188 -18.328125 C 32.398438 -18.304688 32.695312 -18.332031 33.007812 -18.402344 C 33.558594 -18.535156 34.054688 -18.789062 34.5 -19.164062 C 34.984375 -19.578125 35.335938 -20.078125 35.554688 -20.667969 C 35.691406 -21.039062 35.757812 -21.382812 35.757812 -21.699219 C 35.734375 -20.464844 35.660156 -19.164062 35.535156 -17.792969 C 35.410156 -16.429688 35.226562 -15.023438 34.996094 -13.578125 C 34.707031 -11.910156 34.394531 -10.332031 34.058594 -8.835938 C 33.730469 -7.375 33.46875 -6.242188 33.269531 -5.441406 L 33.242188 -5.332031 L 33.207031 -5.226562 C 33.34375 -5.660156 33.378906 -6.125 33.316406 -6.613281 C 33.21875 -7.402344 32.898438 -8.089844 32.351562 -8.675781 C 31.910156 -9.152344 31.382812 -9.484375 30.769531 -9.671875 C 30.367188 -9.796875 29.96875 -9.84375 29.578125 -9.8125 Z M 34.726562 -15.933594 L 36.964844 -15.933594 L 36.964844 -11.734375 L 32.78125 -11.4375 C 32.761719 -11.6875 32.738281 -11.933594 32.714844 -12.183594 C 32.683594 -12.457031 32.648438 -12.753906 32.609375 -13.070312 C 32.46875 -14.070312 32.324219 -15.035156 32.179688 -15.960938 C 32.035156 -16.894531 31.886719 -17.804688 31.738281 -18.6875 L 35.878906 -19.378906 L 40.019531 -18.683594 L 39.554688 -15.917969 L 39.0625 -12.910156 L 34.921875 -13.589844 L 39.085938 -13.070312 C 39.050781 -12.800781 39.027344 -12.558594 39.011719 -12.332031 C 38.984375 -11.933594 38.941406 -11.539062 38.882812 -11.140625 L 34.726562 -11.734375 Z M 34.726562 -7.539062 L 29.886719 -7.539062 L 30.574219 -12.328125 C 30.601562 -12.53125 30.621094 -12.730469 30.636719 -12.929688 C 30.664062 -13.304688 30.703125 -13.695312 30.753906 -14.113281 L 30.765625 -14.191406 L 31.277344 -17.304688 L 31.738281 -20.074219 L 40.019531 -20.070312 C 40.171875 -19.160156 40.324219 -18.226562 40.472656 -17.265625 C 40.625 -16.292969 40.78125 -15.242188 40.941406 -14.113281 C 40.984375 -13.746094 41.027344 -13.402344 41.058594 -13.078125 C 41.097656 -12.730469 41.128906 -12.382812 41.152344 -12.035156 L 41.476562 -7.539062 Z M 19.859375 -14.496094 L 20.691406 -14.496094 C 20.433594 -14.496094 20.171875 -14.421875 19.910156 -14.277344 C 19.691406 -14.152344 19.535156 -14.019531 19.4375 -13.871094 C 19.410156 -13.835938 19.398438 -13.8125 19.390625 -13.800781 C 19.410156 -13.851562 19.433594 -13.921875 19.453125 -14.015625 C 19.527344 -14.34375 19.5625 -14.78125 19.5625 -15.316406 C 19.5625 -15.65625 19.546875 -15.910156 19.511719 -16.082031 C 19.507812 -16.09375 19.507812 -16.097656 19.507812 -16.101562 C 19.511719 -16.085938 19.519531 -16.066406 19.527344 -16.042969 C 19.570312 -15.925781 19.632812 -15.804688 19.710938 -15.675781 C 19.945312 -15.316406 20.261719 -15.027344 20.667969 -14.816406 C 21.019531 -14.632812 21.371094 -14.542969 21.714844 -14.542969 C 22.171875 -14.542969 22.609375 -14.644531 23.019531 -14.84375 C 23.324219 -14.996094 23.582031 -15.183594 23.785156 -15.410156 C 23.976562 -15.621094 24.101562 -15.847656 24.152344 -16.089844 L 20.050781 -16.980469 L 24.171875 -16.191406 C 24.039062 -15.488281 23.984375 -14.707031 24.007812 -13.851562 C 24.039062 -12.648438 24.054688 -11.464844 24.054688 -10.296875 L 19.859375 -10.296875 Z M 19.859375 -6.097656 L 15.660156 -6.097656 L 15.660156 -10.296875 C 15.660156 -11.386719 15.644531 -12.496094 15.613281 -13.617188 C 15.574219 -15.085938 15.679688 -16.46875 15.925781 -17.769531 L 15.949219 -17.871094 C 16.214844 -19.09375 16.753906 -20.152344 17.5625 -21.046875 C 18.078125 -21.613281 18.660156 -22.054688 19.3125 -22.378906 C 20.070312 -22.75 20.871094 -22.9375 21.714844 -22.9375 C 22.738281 -22.9375 23.683594 -22.710938 24.546875 -22.261719 C 25.464844 -21.785156 26.210938 -21.097656 26.785156 -20.203125 C 27.566406 -18.980469 27.957031 -17.351562 27.957031 -15.316406 C 27.957031 -12.785156 27.445312 -10.753906 26.421875 -9.214844 C 25.769531 -8.238281 24.960938 -7.480469 23.996094 -6.941406 C 22.988281 -6.378906 21.886719 -6.097656 20.691406 -6.097656 Z M 12.1875 4.296875 C 11.355469 4.203125 10.449219 4.136719 9.476562 4.097656 C 8.453125 4.058594 7.46875 4.039062 6.523438 4.039062 C 5.644531 4.039062 4.796875 4.0625 3.972656 4.109375 C 3.109375 4.160156 2.351562 4.214844 1.691406 4.277344 C 1.085938 4.335938 0.5 4.300781 -0.0703125 4.164062 C -1.011719 3.9375 -1.800781 3.480469 -2.445312 2.78125 C -3.097656 2.074219 -3.496094 1.230469 -3.636719 0.257812 C -3.722656 -0.339844 -3.699219 -0.953125 -3.566406 -1.585938 C -3.476562 -2.042969 -3.371094 -2.652344 -3.253906 -3.414062 C -3.132812 -4.175781 -3.023438 -4.996094 -2.921875 -5.867188 C -2.835938 -6.636719 -2.789062 -7.34375 -2.789062 -7.996094 C -2.789062 -8.757812 -2.835938 -9.558594 -2.925781 -10.386719 C -3.027344 -11.308594 -3.136719 -12.160156 -3.253906 -12.945312 C -3.371094 -13.722656 -3.480469 -14.34375 -3.574219 -14.8125 C -3.699219 -15.429688 -3.722656 -16.035156 -3.636719 -16.628906 C -3.496094 -17.605469 -3.097656 -18.445312 -2.445312 -19.15625 C -1.800781 -19.851562 -1.011719 -20.3125 -0.0703125 -20.535156 C 0.5 -20.671875 1.101562 -20.707031 1.730469 -20.644531 C 2.40625 -20.566406 3.148438 -20.507812 3.953125 -20.46875 C 4.796875 -20.429688 5.652344 -20.410156 6.523438 -20.410156 C 7.480469 -20.410156 8.417969 -20.425781 9.34375 -20.457031 C 10.164062 -20.484375 10.960938 -20.550781 11.730469 -20.65625 L 11.871094 -20.675781 L 12.011719 -20.6875 C 12.632812 -20.730469 13.222656 -20.679688 13.785156 -20.527344 C 14.621094 -20.304688 15.335938 -19.890625 15.933594 -19.292969 C 16.535156 -18.695312 16.945312 -17.976562 17.167969 -17.144531 C 17.320312 -16.582031 17.375 -15.988281 17.328125 -15.371094 L 13.144531 -15.667969 L 17.335938 -15.515625 C 17.316406 -14.964844 17.300781 -14.40625 17.292969 -13.835938 C 17.28125 -13.324219 17.285156 -12.867188 17.304688 -12.460938 L 17.308594 -12.371094 L 17.308594 -12.28125 C 17.308594 -11.550781 17.171875 -10.871094 16.898438 -10.242188 C 16.484375 -9.277344 15.820312 -8.539062 14.914062 -8.03125 C 14.039062 -7.539062 13.09375 -7.351562 12.078125 -7.464844 C 11.46875 -7.535156 10.867188 -7.71875 10.273438 -8.011719 C 9.914062 -8.195312 9.570312 -8.3125 9.246094 -8.371094 C 8.789062 -8.449219 8.394531 -8.488281 8.070312 -8.484375 C 7.523438 -8.472656 7.085938 -8.457031 6.757812 -8.441406 L 6.523438 -12.632812 L 10.671875 -11.988281 L 10.527344 -11.058594 C 10.445312 -10.539062 10.378906 -9.945312 10.324219 -9.277344 L 6.140625 -9.625 L 6.140625 -13.824219 C 6.390625 -13.824219 6.671875 -13.859375 6.976562 -13.9375 C 7.476562 -14.0625 7.890625 -14.183594 8.222656 -14.304688 L 9.65625 -10.359375 L 8.042969 -14.234375 C 8.613281 -14.472656 9.183594 -14.609375 9.753906 -14.640625 C 10.8125 -14.699219 11.769531 -14.433594 12.621094 -13.839844 C 13.476562 -13.246094 14.058594 -12.441406 14.371094 -11.429688 C 14.539062 -10.886719 14.609375 -10.304688 14.585938 -9.6875 L 14.582031 -9.59375 L 14.574219 -9.5 C 14.558594 -9.300781 14.546875 -9.105469 14.539062 -8.90625 C 14.53125 -8.710938 14.527344 -8.492188 14.527344 -8.25 L 14.527344 -7.5 C 14.527344 -7.371094 14.53125 -7.234375 14.542969 -7.097656 L 14.550781 -6.996094 L 14.554688 -6.898438 C 14.578125 -6.289062 14.507812 -5.71875 14.347656 -5.179688 C 14.054688 -4.195312 13.507812 -3.402344 12.703125 -2.796875 C 11.859375 -2.164062 10.902344 -1.863281 9.828125 -1.890625 C 9.230469 -1.90625 8.632812 -2.035156 8.035156 -2.273438 L 9.59375 -6.171875 L 8.160156 -2.226562 C 7.851562 -2.339844 7.457031 -2.449219 6.976562 -2.558594 C 6.632812 -2.636719 6.34375 -2.679688 6.109375 -2.679688 L 6.109375 -6.875 L 10.300781 -7.101562 C 10.332031 -6.488281 10.390625 -5.941406 10.480469 -5.460938 L 10.65625 -4.488281 L 6.523438 -3.742188 L 6.738281 -7.933594 C 8.347656 -7.851562 9.585938 -8.085938 10.453125 -8.632812 L 10.496094 -8.660156 L 10.535156 -8.683594 C 11.082031 -9.011719 11.640625 -9.234375 12.210938 -9.347656 C 12.703125 -9.449219 13.199219 -9.46875 13.691406 -9.40625 C 14.347656 -9.328125 14.953125 -9.113281 15.511719 -8.765625 C 16.054688 -8.425781 16.503906 -7.988281 16.863281 -7.449219 C 17.121094 -7.058594 17.320312 -6.636719 17.453125 -6.175781 C 17.609375 -5.644531 17.679688 -5.074219 17.65625 -4.464844 L 17.65625 -4.367188 L 17.648438 -4.265625 C 17.558594 -3.175781 17.558594 -2.101562 17.644531 -1.050781 L 13.460938 -0.703125 L 17.636719 -1.152344 C 17.703125 -0.53125 17.671875 0.0625 17.539062 0.632812 C 17.339844 1.492188 16.9375 2.234375 16.335938 2.863281 C 15.734375 3.488281 15.003906 3.917969 14.148438 4.152344 C 13.582031 4.304688 12.988281 4.359375 12.363281 4.316406 L 12.277344 4.308594 Z M 13.136719 -4.042969 L 12.664062 0.128906 L 12.960938 -4.058594 C 12.636719 -4.082031 12.300781 -4.046875 11.949219 -3.949219 C 11.308594 -3.777344 10.753906 -3.445312 10.285156 -2.957031 C 9.816406 -2.46875 9.507812 -1.90625 9.359375 -1.261719 C 9.277344 -0.914062 9.253906 -0.578125 9.289062 -0.257812 L 9.285156 -0.304688 L 9.28125 -0.355469 C 9.152344 -1.863281 9.152344 -3.390625 9.277344 -4.941406 L 13.460938 -4.605469 L 9.265625 -4.746094 C 9.257812 -4.457031 9.300781 -4.144531 9.398438 -3.8125 C 9.503906 -3.453125 9.664062 -3.113281 9.878906 -2.792969 C 10.1875 -2.328125 10.582031 -1.945312 11.0625 -1.644531 C 11.554688 -1.335938 12.089844 -1.144531 12.664062 -1.074219 C 13.078125 -1.023438 13.480469 -1.039062 13.878906 -1.121094 C 14.25 -1.195312 14.574219 -1.316406 14.855469 -1.484375 L 12.695312 -5.085938 L 14.9375 -1.535156 C 12.566406 -0.0390625 9.691406 0.625 6.308594 0.449219 L 2.984375 0.28125 L 2.214844 -3.972656 C 2.070312 -4.792969 1.96875 -5.6875 1.917969 -6.648438 L 1.675781 -11.074219 L 6.109375 -11.074219 C 6.980469 -11.074219 7.894531 -10.960938 8.855469 -10.742188 C 9.671875 -10.554688 10.398438 -10.347656 11.027344 -10.117188 L 11.152344 -10.070312 C 10.820312 -10.203125 10.457031 -10.273438 10.054688 -10.285156 C 9.179688 -10.308594 8.382812 -10.050781 7.667969 -9.515625 C 6.992188 -9.007812 6.535156 -8.359375 6.300781 -7.570312 C 6.199219 -7.230469 6.15625 -6.90625 6.167969 -6.597656 L 10.359375 -6.746094 L 6.179688 -6.398438 C 6.148438 -6.769531 6.132812 -7.136719 6.132812 -7.5 L 6.132812 -8.25 C 6.132812 -8.605469 6.136719 -8.941406 6.152344 -9.257812 C 6.164062 -9.570312 6.183594 -9.882812 6.210938 -10.199219 L 10.394531 -9.847656 L 6.199219 -10.011719 C 6.183594 -9.671875 6.234375 -9.320312 6.347656 -8.953125 C 6.605469 -8.125 7.097656 -7.453125 7.828125 -6.945312 C 8.558594 -6.4375 9.359375 -6.210938 10.226562 -6.257812 C 10.609375 -6.28125 10.957031 -6.355469 11.273438 -6.484375 L 11.183594 -6.449219 L 11.09375 -6.417969 C 10.484375 -6.195312 9.792969 -5.988281 9.011719 -5.792969 C 8.039062 -5.550781 7.082031 -5.429688 6.140625 -5.429688 L 1.578125 -5.429688 L 1.957031 -9.972656 C 2.027344 -10.839844 2.121094 -11.632812 2.230469 -12.347656 L 2.898438 -16.632812 L 6.289062 -16.824219 C 6.726562 -16.847656 7.269531 -16.863281 7.917969 -16.875 C 8.785156 -16.890625 9.714844 -16.8125 10.707031 -16.636719 C 11.832031 -16.4375 12.941406 -16.066406 14.027344 -15.523438 C 13.734375 -15.667969 13.402344 -15.765625 13.023438 -15.808594 C 12.242188 -15.894531 11.5 -15.742188 10.796875 -15.347656 C 10.058594 -14.933594 9.527344 -14.339844 9.195312 -13.574219 C 9.007812 -13.140625 8.914062 -12.710938 8.914062 -12.28125 L 13.109375 -12.28125 L 8.917969 -12.097656 C 8.890625 -12.671875 8.886719 -13.300781 8.898438 -13.984375 C 8.910156 -14.609375 8.925781 -15.222656 8.949219 -15.824219 L 8.949219 -15.898438 L 8.957031 -15.96875 C 8.933594 -15.648438 8.96875 -15.316406 9.0625 -14.96875 C 9.226562 -14.355469 9.539062 -13.816406 10 -13.355469 C 10.460938 -12.894531 10.996094 -12.582031 11.613281 -12.417969 C 11.957031 -12.324219 12.289062 -12.289062 12.609375 -12.3125 L 12.3125 -16.5 L 12.890625 -12.34375 C 11.828125 -12.195312 10.738281 -12.101562 9.621094 -12.066406 C 8.605469 -12.03125 7.570312 -12.015625 6.523438 -12.015625 C 5.519531 -12.015625 4.53125 -12.039062 3.558594 -12.082031 C 2.554688 -12.132812 1.667969 -12.199219 0.894531 -12.292969 C 1.203125 -12.261719 1.53125 -12.285156 1.875 -12.371094 C 2.59375 -12.539062 3.210938 -12.90625 3.722656 -13.460938 C 4.25 -14.03125 4.566406 -14.691406 4.675781 -15.445312 C 4.726562 -15.816406 4.722656 -16.15625 4.660156 -16.460938 C 4.777344 -15.863281 4.90625 -15.113281 5.046875 -14.207031 C 5.183594 -13.304688 5.308594 -12.332031 5.421875 -11.292969 C 5.542969 -10.164062 5.605469 -9.0625 5.605469 -7.996094 C 5.605469 -7.023438 5.542969 -5.996094 5.417969 -4.910156 C 5.304688 -3.925781 5.179688 -2.996094 5.042969 -2.121094 C 4.90625 -1.238281 4.777344 -0.496094 4.652344 0.113281 C 4.722656 -0.210938 4.726562 -0.558594 4.675781 -0.929688 C 4.566406 -1.679688 4.25 -2.339844 3.722656 -2.910156 C 3.210938 -3.46875 2.59375 -3.832031 1.875 -4.003906 C 1.53125 -4.085938 1.214844 -4.113281 0.929688 -4.085938 C 1.679688 -4.152344 2.527344 -4.214844 3.480469 -4.269531 C 4.46875 -4.328125 5.480469 -4.359375 6.523438 -4.359375 C 7.582031 -4.359375 8.675781 -4.335938 9.808594 -4.289062 C 10.988281 -4.242188 12.097656 -4.160156 13.136719 -4.042969 Z M 13.136719 -4.042969 "/></g></g></g></g><g fill="#ffb829" fill-opacity="1"><g transform="translate(47.830124, 42.269309)"><g/></g></g><g fill="#f7f8ef" fill-opacity="1"><g transform="translate(5.167643, 42.269309)"><g><path d="M 30.921875 1.828125 C 29.835938 1.828125 28.910156 1.648438 28.140625 1.296875 C 27.378906 0.941406 26.734375 0.484375 26.203125 -0.078125 C 25.679688 -0.640625 25.238281 -1.25 24.875 -1.90625 C 24.519531 -2.570312 24.207031 -3.210938 23.9375 -3.828125 C 23.675781 -4.453125 23.425781 -4.988281 23.1875 -5.4375 C 22.84375 -6.09375 22.414062 -6.648438 21.90625 -7.109375 C 21.394531 -7.566406 20.734375 -7.863281 19.921875 -8 C 20.003906 -6.351562 20.132812 -4.90625 20.3125 -3.65625 C 20.5 -2.414062 20.671875 -1.453125 20.828125 -0.765625 C 20.890625 -0.492188 20.847656 -0.273438 20.703125 -0.109375 C 20.566406 0.046875 20.347656 0.113281 20.046875 0.09375 C 19.710938 0.03125 19.351562 -0.015625 18.96875 -0.046875 C 18.582031 -0.078125 18.113281 -0.09375 17.5625 -0.09375 C 17.03125 -0.09375 16.570312 -0.078125 16.1875 -0.046875 C 15.800781 -0.015625 15.457031 0.0195312 15.15625 0.0625 C 14.882812 0.101562 14.671875 0.046875 14.515625 -0.109375 C 14.367188 -0.273438 14.328125 -0.492188 14.390625 -0.765625 C 14.492188 -1.378906 14.617188 -2.21875 14.765625 -3.28125 C 14.921875 -4.351562 15.054688 -5.570312 15.171875 -6.9375 C 15.296875 -8.300781 15.359375 -9.71875 15.359375 -11.1875 C 15.359375 -12.625 15.300781 -14.015625 15.1875 -15.359375 C 15.082031 -16.703125 14.96875 -17.84375 14.84375 -18.78125 C 14.4375 -18.757812 13.832031 -18.726562 13.03125 -18.6875 C 12.226562 -18.65625 11.3125 -18.625 10.28125 -18.59375 C 9.25 -18.5625 8.195312 -18.519531 7.125 -18.46875 C 6.0625 -18.414062 5.066406 -18.351562 4.140625 -18.28125 C 3.210938 -18.207031 2.441406 -18.128906 1.828125 -18.046875 C 1.242188 -17.929688 0.988281 -18.1875 1.0625 -18.8125 C 1.144531 -19.363281 1.1875 -19.972656 1.1875 -20.640625 C 1.1875 -21.316406 1.144531 -21.921875 1.0625 -22.453125 C 0.988281 -23.046875 1.234375 -23.320312 1.796875 -23.28125 C 2.554688 -23.238281 3.515625 -23.210938 4.671875 -23.203125 C 5.835938 -23.191406 7.085938 -23.1875 8.421875 -23.1875 C 9.753906 -23.1875 11.054688 -23.195312 12.328125 -23.21875 C 13.597656 -23.238281 14.710938 -23.257812 15.671875 -23.28125 C 17.722656 -23.34375 19.53125 -23.285156 21.09375 -23.109375 C 22.65625 -22.929688 23.96875 -22.554688 25.03125 -21.984375 C 26.101562 -21.421875 26.910156 -20.597656 27.453125 -19.515625 C 28.003906 -18.441406 28.28125 -17.046875 28.28125 -15.328125 C 28.28125 -12.484375 27.347656 -10.53125 25.484375 -9.46875 C 26.066406 -9.144531 26.53125 -8.785156 26.875 -8.390625 C 27.226562 -7.992188 27.597656 -7.375 27.984375 -6.53125 C 28.328125 -5.78125 28.65625 -5.195312 28.96875 -4.78125 C 29.289062 -4.363281 29.679688 -4.054688 30.140625 -3.859375 C 30.597656 -3.671875 31.195312 -3.554688 31.9375 -3.515625 C 32.675781 -3.472656 33.617188 -3.453125 34.765625 -3.453125 C 35.234375 -3.453125 35.878906 -3.472656 36.703125 -3.515625 C 37.523438 -3.554688 38.394531 -3.628906 39.3125 -3.734375 C 40.226562 -3.847656 41.046875 -4 41.765625 -4.1875 C 42.367188 -4.3125 42.640625 -4.085938 42.578125 -3.515625 C 42.503906 -2.878906 42.46875 -2.125 42.46875 -1.25 C 42.46875 -0.375 42.503906 0.367188 42.578125 0.984375 C 42.640625 1.566406 42.390625 1.847656 41.828125 1.828125 C 41.109375 1.785156 40.226562 1.757812 39.1875 1.75 C 38.15625 1.738281 37.101562 1.738281 36.03125 1.75 C 34.957031 1.757812 33.96875 1.773438 33.0625 1.796875 C 32.15625 1.816406 31.441406 1.828125 30.921875 1.828125 Z M 29.90625 -5.625 C 29.625 -5.601562 29.414062 -5.664062 29.28125 -5.8125 C 29.144531 -5.96875 29.117188 -6.179688 29.203125 -6.453125 C 29.390625 -7.222656 29.644531 -8.320312 29.96875 -9.75 C 30.289062 -11.175781 30.585938 -12.691406 30.859375 -14.296875 C 31.078125 -15.617188 31.242188 -16.914062 31.359375 -18.1875 C 31.472656 -19.457031 31.539062 -20.65625 31.5625 -21.78125 C 31.5625 -22.3125 31.851562 -22.554688 32.4375 -22.515625 C 33.03125 -22.472656 33.753906 -22.441406 34.609375 -22.421875 C 35.460938 -22.398438 36.304688 -22.398438 37.140625 -22.421875 C 37.984375 -22.441406 38.707031 -22.472656 39.3125 -22.515625 C 39.863281 -22.554688 40.140625 -22.3125 40.140625 -21.78125 C 40.160156 -20.519531 40.226562 -19.269531 40.34375 -18.03125 C 40.46875 -16.800781 40.632812 -15.554688 40.84375 -14.296875 C 41.125 -12.722656 41.429688 -11.21875 41.765625 -9.78125 C 42.109375 -8.351562 42.367188 -7.242188 42.546875 -6.453125 C 42.710938 -5.835938 42.453125 -5.5625 41.765625 -5.625 C 41.316406 -5.6875 40.722656 -5.71875 39.984375 -5.71875 C 39.535156 -5.71875 39.15625 -5.710938 38.84375 -5.703125 C 38.53125 -5.691406 38.238281 -5.664062 37.96875 -5.625 C 37.414062 -5.519531 37.140625 -5.765625 37.140625 -6.359375 C 37.179688 -7.046875 37.179688 -7.929688 37.140625 -9.015625 L 34.609375 -9.015625 C 34.566406 -7.929688 34.566406 -7.046875 34.609375 -6.359375 C 34.609375 -5.785156 34.320312 -5.539062 33.75 -5.625 C 33.46875 -5.664062 33.175781 -5.691406 32.875 -5.703125 C 32.582031 -5.710938 32.203125 -5.71875 31.734375 -5.71875 C 31.003906 -5.71875 30.394531 -5.6875 29.90625 -5.625 Z M 34.734375 -11.734375 L 36.96875 -11.734375 C 36.945312 -12.035156 36.921875 -12.332031 36.890625 -12.625 C 36.859375 -12.925781 36.820312 -13.25 36.78125 -13.59375 C 36.632812 -14.65625 36.484375 -15.660156 36.328125 -16.609375 C 36.179688 -17.566406 36.035156 -18.488281 35.890625 -19.375 C 35.734375 -18.488281 35.578125 -17.566406 35.421875 -16.609375 C 35.265625 -15.660156 35.097656 -14.65625 34.921875 -13.59375 C 34.878906 -13.25 34.847656 -12.925781 34.828125 -12.625 C 34.804688 -12.332031 34.773438 -12.035156 34.734375 -11.734375 Z M 19.859375 -10.296875 L 20.6875 -10.296875 C 21.625 -10.296875 22.367188 -10.710938 22.921875 -11.546875 C 23.484375 -12.378906 23.765625 -13.640625 23.765625 -15.328125 C 23.765625 -16.535156 23.59375 -17.40625 23.25 -17.9375 C 22.90625 -18.476562 22.394531 -18.75 21.71875 -18.75 C 21.332031 -18.75 20.984375 -18.578125 20.671875 -18.234375 C 20.367188 -17.890625 20.160156 -17.472656 20.046875 -16.984375 C 19.859375 -15.984375 19.78125 -14.898438 19.8125 -13.734375 C 19.84375 -12.578125 19.859375 -11.429688 19.859375 -10.296875 Z M 12.671875 0.125 C 11.734375 0.0195312 10.722656 -0.0507812 9.640625 -0.09375 C 8.566406 -0.132812 7.53125 -0.15625 6.53125 -0.15625 C 5.5625 -0.15625 4.625 -0.128906 3.71875 -0.078125 C 2.8125 -0.0234375 2.007812 0.03125 1.3125 0.09375 C 0.675781 0.15625 0.421875 -0.117188 0.546875 -0.734375 C 0.648438 -1.265625 0.765625 -1.941406 0.890625 -2.765625 C 1.023438 -3.585938 1.144531 -4.460938 1.25 -5.390625 C 1.351562 -6.316406 1.40625 -7.1875 1.40625 -8 C 1.40625 -8.914062 1.351562 -9.863281 1.25 -10.84375 C 1.144531 -11.820312 1.023438 -12.734375 0.890625 -13.578125 C 0.765625 -14.421875 0.648438 -15.109375 0.546875 -15.640625 C 0.421875 -16.253906 0.675781 -16.53125 1.3125 -16.46875 C 2.039062 -16.382812 2.859375 -16.320312 3.765625 -16.28125 C 4.671875 -16.238281 5.59375 -16.21875 6.53125 -16.21875 C 7.53125 -16.21875 8.515625 -16.234375 9.484375 -16.265625 C 10.453125 -16.296875 11.394531 -16.375 12.3125 -16.5 C 12.90625 -16.539062 13.179688 -16.265625 13.140625 -15.671875 C 13.117188 -15.097656 13.101562 -14.507812 13.09375 -13.90625 C 13.082031 -13.3125 13.085938 -12.769531 13.109375 -12.28125 C 13.109375 -11.976562 13.023438 -11.78125 12.859375 -11.6875 C 12.691406 -11.59375 12.457031 -11.617188 12.15625 -11.765625 C 11.425781 -12.128906 10.695312 -12.375 9.96875 -12.5 C 9.25 -12.632812 8.585938 -12.695312 7.984375 -12.6875 C 7.390625 -12.675781 6.90625 -12.660156 6.53125 -12.640625 C 6.53125 -12.640625 6.476562 -12.328125 6.375 -11.703125 C 6.28125 -11.085938 6.203125 -10.394531 6.140625 -9.625 C 6.734375 -9.625 7.347656 -9.703125 7.984375 -9.859375 C 8.628906 -10.023438 9.1875 -10.191406 9.65625 -10.359375 C 10.164062 -10.578125 10.410156 -10.40625 10.390625 -9.84375 C 10.367188 -9.59375 10.351562 -9.335938 10.34375 -9.078125 C 10.332031 -8.828125 10.328125 -8.550781 10.328125 -8.25 C 10.328125 -8 10.328125 -7.75 10.328125 -7.5 C 10.328125 -7.25 10.335938 -7 10.359375 -6.75 C 10.378906 -6.15625 10.125 -5.960938 9.59375 -6.171875 C 9.125 -6.335938 8.5625 -6.492188 7.90625 -6.640625 C 7.257812 -6.796875 6.660156 -6.875 6.109375 -6.875 C 6.148438 -6.082031 6.226562 -5.359375 6.34375 -4.703125 C 6.46875 -4.054688 6.53125 -3.734375 6.53125 -3.734375 C 9.019531 -3.609375 11.078125 -4.054688 12.703125 -5.078125 C 13.234375 -5.398438 13.488281 -5.242188 13.46875 -4.609375 C 13.363281 -3.285156 13.363281 -1.984375 13.46875 -0.703125 C 13.53125 -0.109375 13.265625 0.164062 12.671875 0.125 Z M 12.671875 0.125 "/></g></g></g><g fill="#f7f8ef" fill-opacity="1"><g transform="translate(47.830124, 42.269309)"><g/></g></g></g></g></svg>