<?xml version="1.0" encoding="UTF-8"?>
<svg xmlns="http://www.w3.org/2000/svg" xmlns:xlink="http://www.w3.org/1999/xlink" width="80px" height="80px" viewBox="0 0 80 80" version="1.1">
<g id="surface1">
<path style=" stroke:none;fill-rule:nonzero;fill:rgb(100%,100%,100%);fill-opacity:1;" d="M 40 0 C 62.089844 0 80 17.910156 80 40 C 80 62.089844 62.089844 80 40 80 C 17.910156 80 0 62.089844 0 40 C 0 17.910156 17.910156 0 40 0 Z M 40 0 "/>
<path style="fill:none;stroke-width:3.456;stroke-linecap:round;stroke-linejoin:round;stroke:rgb(12.941177%,18.039216%,24.313726%);stroke-opacity:1;stroke-miterlimit:4;" d="M 38.000624 23.999999 C 38.000624 16.268437 31.731561 9.999374 23.999999 9.999374 C 16.268437 9.999374 9.999374 16.268437 9.999374 23.999999 C 9.999374 31.731561 16.268437 38.000624 23.999999 38.000624 C 31.731561 38.000624 38.000624 31.731561 38.000624 23.999999 Z M 38.000624 23.999999 " transform="matrix(1.388889,0,0,1.388889,6.666667,6.666667)"/>
<path style="fill:none;stroke-width:3.456;stroke-linecap:round;stroke-linejoin:round;stroke:rgb(12.941177%,18.039216%,24.313726%);stroke-opacity:1;stroke-miterlimit:4;" d="M 31.000311 23.999999 L 18.999374 31.000311 L 18.999374 16.999687 Z M 31.000311 23.999999 " transform="matrix(1.388889,0,0,1.388889,6.666667,6.666667)"/>
<path style="fill:none;stroke-width:3.456;stroke-linecap:round;stroke-linejoin:round;stroke:rgb(12.941177%,18.039216%,24.313726%);stroke-opacity:1;stroke-miterlimit:4;" d="M 45.498748 23.999999 C 45.498748 12.125624 35.874374 2.50125 23.999999 2.50125 C 12.125624 2.50125 2.50125 12.125624 2.50125 23.999999 C 2.50125 35.874374 12.125624 45.498748 23.999999 45.498748 C 35.874374 45.498748 45.498748 35.874374 45.498748 23.999999 Z M 45.498748 23.999999 " transform="matrix(1.388889,0,0,1.388889,6.666667,6.666667)"/>
<path style="fill:none;stroke-width:1.584;stroke-linecap:round;stroke-linejoin:round;stroke:rgb(12.941177%,18.039216%,24.313726%);stroke-opacity:1;stroke-miterlimit:4;" d="M 38.000624 23.999999 C 38.000624 16.268437 31.731561 9.999374 23.999999 9.999374 C 16.268437 9.999374 9.999374 16.268437 9.999374 23.999999 C 9.999374 31.731561 16.268437 38.000624 23.999999 38.000624 C 31.731561 38.000624 38.000624 31.731561 38.000624 23.999999 Z M 38.000624 23.999999 " transform="matrix(1.388889,0,0,1.388889,6.666667,6.666667)"/>
<path style="fill:none;stroke-width:1.584;stroke-linecap:round;stroke-linejoin:round;stroke:rgb(12.941177%,18.039216%,24.313726%);stroke-opacity:1;stroke-miterlimit:4;" d="M 31.000311 23.999999 L 18.999374 31.000311 L 18.999374 16.999687 Z M 31.000311 23.999999 " transform="matrix(1.388889,0,0,1.388889,6.666667,6.666667)"/>
<path style="fill:none;stroke-width:1.584;stroke-linecap:round;stroke-linejoin:round;stroke:rgb(12.941177%,18.039216%,24.313726%);stroke-opacity:1;stroke-miterlimit:4;" d="M 45.498748 23.999999 C 45.498748 12.125624 35.874374 2.50125 23.999999 2.50125 C 12.125624 2.50125 2.50125 12.125624 2.50125 23.999999 C 2.50125 35.874374 12.125624 45.498748 23.999999 45.498748 C 35.874374 45.498748 45.498748 35.874374 45.498748 23.999999 Z M 45.498748 23.999999 " transform="matrix(1.388889,0,0,1.388889,6.666667,6.666667)"/>
</g>
</svg>
